<svg width="334" height="322" viewBox="0 0 334 322" fill="none" xmlns="http://www.w3.org/2000/svg">
<g opacity="0.2">
<mask id="mask0_852_9124" style="mask-type:luminance" maskUnits="userSpaceOnUse" x="37" y="36" width="259" height="259">
<path d="M295.397 36.2969H37.0293V294.121H295.397V36.2969Z" fill="white"/>
</mask>
<g mask="url(#mask0_852_9124)">
<path d="M0.314263 107.512L99.5842 8.41602L89.0942 8.76494L0.279297 97.4279C0.314263 100.778 0.314263 104.127 0.314263 107.512Z" fill="black"/>
<path d="M0 136.369L129.376 7.47461L118.886 7.85843L0.174833 126.111C0 129.6 0 133.089 0 136.369Z" fill="black"/>
<path d="M2.62264 162.33L159.168 6.0791L148.678 6.53271L1.46875 153.362L2.62264 162.33Z" fill="black"/>
<path d="M5.42085 188.046L189.03 4.82324L178.54 5.27685L4.51172 178.869C4.82642 181.94 5.14112 184.975 5.42085 188.046Z" fill="black"/>
<path d="M7.51864 214.495L218.821 3.63672L208.331 4.05543L6.99414 205.074C6.99414 208.214 7.34381 211.354 7.51864 214.495Z" fill="black"/>
<path d="M8.88072 241.711L248.471 2.625L237.981 2.93904L8.49609 231.976C8.63596 235.221 8.77583 238.466 8.88072 241.711Z" fill="black"/>
<path d="M9.44279 269.729L278.021 1.68164L267.531 2.03057L9.33789 259.68C9.40782 263.03 9.40782 266.379 9.44279 269.729Z" fill="black"/>
<path d="M9.12695 298.551L307.706 0.496094L297.216 0.949702L9.37172 288.223C9.30179 291.678 9.23185 295.132 9.12695 298.551Z" fill="black"/>
<path d="M326.237 0.496094L10.2446 315.893C9.90074 316.219 9.62693 316.612 9.43983 317.046C9.25273 317.481 9.15625 317.95 9.15625 318.423C9.15625 318.896 9.25273 319.365 9.43983 319.799C9.62693 320.234 9.90074 320.627 10.2446 320.953C10.5712 321.296 10.9644 321.569 11.4002 321.756C11.8361 321.943 12.3054 322.039 12.7797 322.039C13.2539 322.039 13.7233 321.943 14.1591 321.756C14.5949 321.569 14.9881 321.296 15.3147 320.953L326.517 10.4057C326.377 7.16064 326.307 3.98539 326.237 0.496094Z" fill="black"/>
<path d="M326.902 28.4102L38.8481 315.893C38.5042 316.219 38.2304 316.611 38.0433 317.046C37.8562 317.481 37.7598 317.949 37.7598 318.423C37.7598 318.896 37.8562 319.364 38.0433 319.799C38.2304 320.234 38.5042 320.626 38.8481 320.952C39.1801 321.291 39.5777 321.558 40.0165 321.738C40.4553 321.918 40.9263 322.007 41.4007 321.999C41.8692 322.002 42.3335 321.911 42.7659 321.731C43.1984 321.551 43.5903 321.286 43.9182 320.952L327.147 38.3197C327.077 35.0398 326.972 31.8994 326.902 28.4102Z" fill="black"/>
<path d="M327.566 56.3252L67.4848 315.894C67.141 316.22 66.8672 316.612 66.6801 317.047C66.493 317.482 66.3965 317.95 66.3965 318.423C66.3965 318.897 66.493 319.365 66.6801 319.8C66.8672 320.235 67.141 320.627 67.4848 320.953C67.8128 321.287 68.2046 321.552 68.6371 321.732C69.0696 321.911 69.5339 322.003 70.0024 322C70.4768 322.007 70.9477 321.918 71.3866 321.738C71.8254 321.559 72.2229 321.291 72.555 320.953L327.81 66.2348C327.706 62.9549 327.636 59.8145 327.566 56.3252Z" fill="black"/>
<path d="M328.266 84.2393L96.0883 315.928C95.7445 316.254 95.4707 316.647 95.2836 317.082C95.0965 317.516 95 317.985 95 318.458C95 318.931 95.0965 319.4 95.2836 319.835C95.4707 320.269 95.7445 320.662 96.0883 320.988C96.415 321.331 96.8082 321.604 97.244 321.791C97.6798 321.978 98.1491 322.074 98.6234 322.074C99.0977 322.074 99.567 321.978 100.003 321.791C100.439 321.604 100.832 321.331 101.158 320.988L328.441 94.1837L328.266 84.2393Z" fill="black"/>
<path d="M329.209 111.84L124.69 315.894C124.346 316.22 124.072 316.612 123.885 317.047C123.698 317.482 123.602 317.95 123.602 318.423C123.602 318.897 123.698 319.365 123.885 319.8C124.072 320.235 124.346 320.627 124.69 320.953C125.022 321.291 125.419 321.558 125.858 321.738C126.297 321.918 126.768 322.007 127.242 322C127.711 322.003 128.175 321.911 128.608 321.732C129.04 321.552 129.432 321.287 129.76 320.953L329.594 121.54C329.454 118.33 329.314 115.085 329.209 111.84Z" fill="black"/>
<path d="M330.504 139.09L153.329 315.892C152.985 316.218 152.711 316.611 152.524 317.046C152.337 317.48 152.24 317.949 152.24 318.422C152.24 318.895 152.337 319.364 152.524 319.799C152.711 320.233 152.985 320.626 153.329 320.952C153.657 321.286 154.048 321.55 154.481 321.73C154.913 321.91 155.378 322.001 155.846 321.999C156.321 322.006 156.791 321.917 157.23 321.737C157.669 321.557 158.067 321.29 158.399 320.952L331.273 148.441C330.993 145.301 330.714 142.195 330.504 139.09Z" fill="black"/>
<path d="M332.95 165.19L181.825 315.893C181.481 316.219 181.207 316.611 181.02 317.046C180.833 317.481 180.736 317.949 180.736 318.423C180.736 318.896 180.833 319.364 181.02 319.799C181.207 320.234 181.481 320.626 181.825 320.952C182.151 321.296 182.545 321.569 182.98 321.755C183.416 321.942 183.885 322.038 184.36 322.038C184.834 322.038 185.303 321.942 185.739 321.755C186.175 321.569 186.568 321.296 186.895 320.952L333.754 174.402L332.95 165.19Z" fill="black"/>
<path d="M332.881 193.803L210.499 315.928C209.947 316.409 209.561 317.052 209.395 317.764C209.23 318.476 209.292 319.222 209.574 319.897C209.856 320.572 210.344 321.141 210.968 321.525C211.592 321.908 212.32 322.087 213.051 322.034C213.52 322.037 213.984 321.946 214.417 321.766C214.849 321.586 215.241 321.321 215.569 320.987L332.182 204.55L332.881 193.803Z" fill="black"/>
<path d="M331.379 223.811L239.172 315.893C238.828 316.219 238.555 316.611 238.368 317.046C238.18 317.481 238.084 317.949 238.084 318.423C238.084 318.896 238.18 319.364 238.368 319.799C238.555 320.234 238.828 320.626 239.172 320.952C239.499 321.29 239.89 321.559 240.322 321.742C240.755 321.926 241.22 322.02 241.69 322.02C242.16 322.02 242.625 321.926 243.058 321.742C243.49 321.559 243.881 321.29 244.207 320.952L331.134 234.278C331.169 230.789 331.274 227.3 331.379 223.811Z" fill="black"/>
</g>
</g>
</svg>
