<svg width="6" height="11" viewBox="0 0 6 11" fill="none" xmlns="http://www.w3.org/2000/svg">
<path d="M5.6238 6.17608C5.73636 6.06366 5.79966 5.91115 5.7998 5.75208V5.44808C5.79796 5.28935 5.73491 5.13745 5.6238 5.02408L1.5118 0.920077C1.4367 0.844352 1.33446 0.801758 1.2278 0.801758C1.12115 0.801758 1.01891 0.844352 0.943804 0.920077L0.375804 1.48808C0.300553 1.56181 0.258147 1.66273 0.258147 1.76808C0.258147 1.87343 0.300553 1.97435 0.375804 2.04808L3.9358 5.60008L0.375804 9.15208C0.300079 9.22718 0.257485 9.32942 0.257485 9.43608C0.257485 9.54273 0.300079 9.64497 0.375804 9.72008L0.943804 10.2801C1.01891 10.3558 1.12115 10.3984 1.2278 10.3984C1.33446 10.3984 1.4367 10.3558 1.5118 10.2801L5.6238 6.17608Z" fill="white"/>
</svg>
