<svg width="6" height="11" viewBox="0 0 6 11" fill="none" xmlns="http://www.w3.org/2000/svg">
<path d="M0.376195 6.17608C0.263641 6.06366 0.200335 5.91115 0.200195 5.75208V5.44808C0.202039 5.28935 0.265088 5.13745 0.376195 5.02408L4.4882 0.920077C4.5633 0.844352 4.66554 0.801758 4.7722 0.801758C4.87885 0.801758 4.98109 0.844352 5.0562 0.920077L5.6242 1.48808C5.69945 1.56181 5.74185 1.66273 5.74185 1.76808C5.74185 1.87343 5.69945 1.97435 5.6242 2.04808L2.0642 5.60008L5.6242 9.15208C5.69992 9.22718 5.74252 9.32942 5.74252 9.43608C5.74252 9.54273 5.69992 9.64497 5.6242 9.72008L5.0562 10.2801C4.98109 10.3558 4.87885 10.3984 4.7722 10.3984C4.66554 10.3984 4.5633 10.3558 4.4882 10.2801L0.376195 6.17608Z" fill="white"/>
</svg>
