<svg width="6" height="10" viewBox="0 0 6 10" fill="none" xmlns="http://www.w3.org/2000/svg">
<path d="M5.6238 5.57647C5.73636 5.46405 5.79966 5.31154 5.7998 5.15247V4.84847C5.79796 4.68974 5.73491 4.53784 5.6238 4.42447L1.5118 0.320468C1.4367 0.244743 1.33446 0.202148 1.2278 0.202148C1.12115 0.202148 1.01891 0.244743 0.943804 0.320468L0.375804 0.888468C0.300553 0.962199 0.258147 1.06312 0.258147 1.16847C0.258147 1.27382 0.300553 1.37474 0.375804 1.44847L3.9358 5.00047L0.375804 8.55247C0.300079 8.62757 0.257485 8.72981 0.257485 8.83647C0.257485 8.94312 0.300079 9.04536 0.375804 9.12047L0.943804 9.68047C1.01891 9.75619 1.12115 9.79879 1.2278 9.79879C1.33446 9.79879 1.4367 9.75619 1.5118 9.68047L5.6238 5.57647Z" fill="black"/>
</svg>
