<svg width="6" height="10" viewBox="0 0 6 10" fill="none" xmlns="http://www.w3.org/2000/svg">
<path d="M0.376195 5.57647C0.263641 5.46405 0.200335 5.31154 0.200195 5.15247V4.84847C0.202039 4.68974 0.265088 4.53784 0.376195 4.42447L4.4882 0.320468C4.5633 0.244743 4.66554 0.202148 4.7722 0.202148C4.87885 0.202148 4.98109 0.244743 5.0562 0.320468L5.6242 0.888468C5.69945 0.962199 5.74185 1.06312 5.74185 1.16847C5.74185 1.27382 5.69945 1.37474 5.6242 1.44847L2.0642 5.00047L5.6242 8.55247C5.69992 8.62757 5.74252 8.72981 5.74252 8.83647C5.74252 8.94312 5.69992 9.04536 5.6242 9.12047L5.0562 9.68047C4.98109 9.75619 4.87885 9.79879 4.7722 9.79879C4.66554 9.79879 4.5633 9.75619 4.4882 9.68047L0.376195 5.57647Z" fill="black"/>
</svg>
