<svg width="20" height="21" viewBox="0 0 20 21" fill="none" xmlns="http://www.w3.org/2000/svg">
<path d="M10 0.5C15.5228 0.5 20 4.97722 20 10.5C20 16.0228 15.5228 20.5 10 20.5C4.47722 20.5 0 16.0228 0 10.5C0 4.97722 4.47722 0.5 10 0.5Z" fill="#0052FF"/>
<path d="M10.0037 14.0134C8.06007 14.0134 6.48957 12.4386 6.48957 10.4993C6.48957 8.56007 8.06441 6.98524 10.0037 6.98524C11.7434 6.98524 13.1881 8.25205 13.4657 9.91365H17.0058C16.7065 6.30411 13.687 3.4668 9.99933 3.4668C6.11647 3.4668 2.9668 6.61647 2.9668 10.4993C2.9668 14.3822 6.11647 17.5319 9.99933 17.5319C13.687 17.5319 16.7065 14.6946 17.0058 11.085H13.4614C13.1837 12.7466 11.7434 14.0134 10.0037 14.0134Z" fill="white"/>
</svg>
