<svg width="20" height="22" viewBox="0 0 20 22" fill="none" xmlns="http://www.w3.org/2000/svg">
<path d="M7 11C7.53043 11 8.03914 10.7893 8.41421 10.4142C8.78929 10.0391 9 9.53043 9 9C9 8.46957 8.78929 7.96086 8.41421 7.58579C8.03914 7.21071 7.53043 7 7 7C6.46957 7 5.96086 7.21071 5.58579 7.58579C5.21071 7.96086 5 8.46957 5 9C5 9.53043 5.21071 10.0391 5.58579 10.4142C5.96086 10.7893 6.46957 11 7 11ZM10 0L19.5 5.5V16.5L10 22L0.5 16.5V5.5L10 0ZM2.5 6.653V15.347L4.872 16.72L12.945 10.8L17.5 13.534V6.654L10 2.31L2.5 6.653Z" fill="black"/>
</svg>
