<svg width="144" height="153" viewBox="0 0 144 153" fill="none" xmlns="http://www.w3.org/2000/svg">
<g clip-path="url(#clip0_970_8716)">
<path d="M123.879 34.2636H2.08013C1.51472 34.2636 0.972466 34.039 0.572659 33.6392C0.172852 33.2394 -0.0517578 32.6972 -0.0517578 32.1318C-0.0517578 31.5664 0.172852 31.0242 0.572659 30.6244C0.972466 30.2246 1.51472 30 2.08013 30H123.879C124.43 30 124.959 30.2191 125.349 30.6092C125.74 30.9992 125.959 31.5282 125.959 32.0798C125.973 32.3616 125.929 32.6432 125.831 32.9077C125.733 33.1722 125.582 33.4139 125.387 33.6182C125.193 33.8224 124.959 33.985 124.699 34.096C124.44 34.2069 124.161 34.264 123.879 34.2636Z" fill="black" fill-opacity="0.2"/>
<path d="M123.878 51.2143H118.554C118.002 51.2143 117.473 50.9952 117.083 50.6051C116.693 50.2151 116.474 49.6861 116.474 49.1345C116.474 48.5829 116.693 48.0539 117.083 47.6639C117.473 47.2738 118.002 47.0547 118.554 47.0547H123.878C124.43 47.0547 124.959 47.2738 125.349 47.6639C125.739 48.0539 125.958 48.5829 125.958 49.1345C125.958 49.6861 125.739 50.2151 125.349 50.6051C124.959 50.9952 124.43 51.2143 123.878 51.2143Z" fill="black" fill-opacity="0.2"/>
<path d="M108.446 51.2143H98.3584C97.8068 51.2143 97.2777 50.9952 96.8877 50.6051C96.4976 50.2151 96.2785 49.6861 96.2785 49.1345C96.2785 48.5829 96.4976 48.0539 96.8877 47.6639C97.2777 47.2738 97.8068 47.0547 98.3584 47.0547H108.446C108.998 47.0547 109.527 47.2738 109.917 47.6639C110.307 48.0539 110.526 48.5829 110.526 49.1345C110.526 49.6861 110.307 50.2151 109.917 50.6051C109.527 50.9952 108.998 51.2143 108.446 51.2143ZM88.2501 51.2143H78.1626C77.611 51.2143 77.082 50.9952 76.6919 50.6051C76.3019 50.2151 76.0827 49.6861 76.0827 49.1345C76.0827 48.5829 76.3019 48.0539 76.6919 47.6639C77.082 47.2738 77.611 47.0547 78.1626 47.0547H88.2501C88.8017 47.0547 89.3308 47.2738 89.7208 47.6639C90.1109 48.0539 90.33 48.5829 90.33 49.1345C90.33 49.6861 90.1109 50.2151 89.7208 50.6051C89.3308 50.9952 88.8017 51.2143 88.2501 51.2143ZM68.0543 51.2143H57.9461C57.3944 51.2143 56.8654 50.9952 56.4753 50.6051C56.0853 50.2151 55.8662 49.6861 55.8662 49.1345C55.8662 48.5829 56.0853 48.0539 56.4753 47.6639C56.8654 47.2738 57.3944 47.0547 57.9461 47.0547H68.0543C68.606 47.0547 69.135 47.2738 69.525 47.6639C69.9151 48.0539 70.1342 48.5829 70.1342 49.1345C70.1342 49.6861 69.9151 50.2151 69.525 50.6051C69.135 50.9952 68.606 51.2143 68.0543 51.2143ZM47.8378 51.2143H37.7503C37.1987 51.2143 36.6696 50.9952 36.2796 50.6051C35.8895 50.2151 35.6704 49.6861 35.6704 49.1345C35.6704 48.5829 35.8895 48.0539 36.2796 47.6639C36.6696 47.2738 37.1987 47.0547 37.7503 47.0547H47.8378C48.3894 47.0547 48.9184 47.2738 49.3085 47.6639C49.6985 48.0539 49.9177 48.5829 49.9177 49.1345C49.9177 49.6861 49.6985 50.2151 49.3085 50.6051C48.9184 50.9952 48.3894 51.2143 47.8378 51.2143ZM27.642 51.2143H17.5545C17.0029 51.2143 16.4739 50.9952 16.0838 50.6051C15.6937 50.2151 15.4746 49.6861 15.4746 49.1345C15.4746 48.5829 15.6937 48.0539 16.0838 47.6639C16.4739 47.2738 17.0029 47.0547 17.5545 47.0547H27.6628C28.2144 47.0547 28.7434 47.2738 29.1335 47.6639C29.5236 48.0539 29.7427 48.5829 29.7427 49.1345C29.7427 49.6861 29.5236 50.2151 29.1335 50.6051C28.7434 50.9952 28.2144 51.2143 27.6628 51.2143H27.642Z" fill="black" fill-opacity="0.2"/>
<path d="M7.44602 51.2143H2.07989C1.52827 51.2143 0.999243 50.9952 0.609187 50.6051C0.219131 50.2151 0 49.6861 0 49.1345C0 48.5829 0.219131 48.0539 0.609187 47.6639C0.999243 47.2738 1.52827 47.0547 2.07989 47.0547H7.44602C7.99764 47.0547 8.52667 47.2738 8.91673 47.6639C9.30679 48.0539 9.52592 48.5829 9.52592 49.1345C9.52592 49.6861 9.30679 50.2151 8.91673 50.6051C8.52667 50.9952 7.99764 51.2143 7.44602 51.2143Z" fill="black" fill-opacity="0.2"/>
<path d="M123.879 68.1855H2.08013C1.51472 68.1855 0.972466 67.9609 0.572659 67.5611C0.172852 67.1613 -0.0517578 66.6191 -0.0517578 66.0537C-0.0517578 65.4883 0.172852 64.9461 0.572659 64.5463C0.972466 64.1465 1.51472 63.9219 2.08013 63.9219H123.879C124.444 63.9219 124.986 64.1465 125.386 64.5463C125.786 64.9461 126.011 65.4883 126.011 66.0537C126.011 66.6191 125.786 67.1613 125.386 67.5611C124.986 67.9609 124.444 68.1855 123.879 68.1855Z" fill="black" fill-opacity="0.2"/>
<path d="M123.878 85.1562H118.554C117.988 85.1562 117.446 84.9316 117.046 84.5318C116.646 84.132 116.422 83.5898 116.422 83.0244C116.422 82.459 116.646 81.9168 117.046 81.517C117.446 81.1172 117.988 80.8926 118.554 80.8926H123.878C124.444 80.8926 124.986 81.1172 125.386 81.517C125.786 81.9168 126.01 82.459 126.01 83.0244C126.01 83.5898 125.786 84.132 125.386 84.5318C124.986 84.9316 124.444 85.1562 123.878 85.1562Z" fill="black" fill-opacity="0.2"/>
<path d="M108.446 85.1562H98.3587C97.7932 85.1562 97.251 84.9316 96.8512 84.5318C96.4514 84.132 96.2268 83.5898 96.2268 83.0244C96.2268 82.459 96.4514 81.9168 96.8512 81.517C97.251 81.1172 97.7932 80.8926 98.3587 80.8926H108.446C109.012 80.8926 109.554 81.1172 109.954 81.517C110.353 81.9168 110.578 82.459 110.578 83.0244C110.578 83.5898 110.353 84.132 109.954 84.5318C109.554 84.9316 109.012 85.1562 108.446 85.1562ZM88.2504 85.1562H78.1629C77.5975 85.1562 77.0552 84.9316 76.6554 84.5318C76.2556 84.132 76.031 83.5898 76.031 83.0244C76.031 82.459 76.2556 81.9168 76.6554 81.517C77.0552 81.1172 77.5975 80.8926 78.1629 80.8926H88.2504C88.8158 80.8926 89.358 81.1172 89.7578 81.517C90.1576 81.9168 90.3823 82.459 90.3823 83.0244C90.3823 83.5898 90.1576 84.132 89.7578 84.5318C89.358 84.9316 88.8158 85.1562 88.2504 85.1562ZM68.0546 85.1562H57.9463C57.3809 85.1562 56.8386 84.9316 56.4388 84.5318C56.039 84.132 55.8144 83.5898 55.8144 83.0244C55.8144 82.459 56.039 81.9168 56.4388 81.517C56.8386 81.1172 57.3809 80.8926 57.9463 80.8926H68.0546C68.62 80.8926 69.1623 81.1172 69.5621 81.517C69.9619 81.9168 70.1865 82.459 70.1865 83.0244C70.1865 83.5898 69.9619 84.132 69.5621 84.5318C69.1623 84.9316 68.62 85.1562 68.0546 85.1562ZM47.8588 85.1562H37.7505C37.1851 85.1562 36.6429 84.9316 36.243 84.5318C35.8432 84.132 35.6186 83.5898 35.6186 83.0244C35.6186 82.459 35.8432 81.9168 36.243 81.517C36.6429 81.1172 37.1851 80.8926 37.7505 80.8926H47.838C48.4034 80.8926 48.9457 81.1172 49.3455 81.517C49.7453 81.9168 49.9699 82.459 49.9699 83.0244C49.9699 83.5898 49.7453 84.132 49.3455 84.5318C48.9457 84.9316 48.4034 85.1562 47.838 85.1562H47.8588ZM27.663 85.1562H17.5547C16.9893 85.1562 16.4471 84.9316 16.0473 84.5318C15.6475 84.132 15.4229 83.5898 15.4229 83.0244C15.4229 82.459 15.6475 81.9168 16.0473 81.517C16.4471 81.1172 16.9893 80.8926 17.5547 80.8926H27.663C28.2284 80.8926 28.7707 81.1172 29.1705 81.517C29.5703 81.9168 29.7949 82.459 29.7949 83.0244C29.7949 83.5898 29.5703 84.132 29.1705 84.5318C28.7707 84.9316 28.2284 85.1562 27.663 85.1562Z" fill="black" fill-opacity="0.2"/>
<path d="M7.44626 85.1562H2.08013C1.51472 85.1562 0.972466 84.9316 0.572659 84.5318C0.172852 84.132 -0.0517578 83.5898 -0.0517578 83.0244C-0.0517578 82.459 0.172852 81.9168 0.572659 81.517C0.972466 81.1172 1.51472 80.8926 2.08013 80.8926H7.44626C8.01167 80.8926 8.55393 81.1172 8.95374 81.517C9.35354 81.9168 9.57815 82.459 9.57815 83.0244C9.57815 83.5898 9.35354 84.132 8.95374 84.5318C8.55393 84.9316 8.01167 85.1562 7.44626 85.1562Z" fill="black" fill-opacity="0.2"/>
<path d="M123.879 102.107H2.08013C1.51472 102.107 0.972466 101.883 0.572659 101.483C0.172852 101.083 -0.0517578 100.541 -0.0517578 99.9756C-0.0517578 99.4102 0.172852 98.8679 0.572659 98.4681C0.972466 98.0684 1.51472 97.8438 2.08013 97.8438H123.879C124.444 97.8438 124.986 98.0684 125.386 98.4681C125.786 98.8679 126.011 99.4102 126.011 99.9756C126.011 100.541 125.786 101.083 125.386 101.483C124.986 101.883 124.444 102.107 123.879 102.107Z" fill="black" fill-opacity="0.2"/>
<path d="M123.878 119.079H118.554C118.002 119.079 117.473 118.859 117.083 118.469C116.693 118.079 116.474 117.55 116.474 116.999C116.474 116.447 116.693 115.918 117.083 115.528C117.473 115.138 118.002 114.919 118.554 114.919H123.878C124.43 114.919 124.959 115.138 125.349 115.528C125.739 115.918 125.958 116.447 125.958 116.999C125.958 117.55 125.739 118.079 125.349 118.469C124.959 118.859 124.43 119.079 123.878 119.079Z" fill="black" fill-opacity="0.2"/>
<path d="M108.446 119.079H98.3584C97.8068 119.079 97.2777 118.859 96.8877 118.469C96.4976 118.079 96.2785 117.55 96.2785 116.999C96.2785 116.447 96.4976 115.918 96.8877 115.528C97.2777 115.138 97.8068 114.919 98.3584 114.919H108.446C108.998 114.919 109.527 115.138 109.917 115.528C110.307 115.918 110.526 116.447 110.526 116.999C110.526 117.55 110.307 118.079 109.917 118.469C109.527 118.859 108.998 119.079 108.446 119.079ZM88.2501 119.079H78.1626C77.611 119.079 77.082 118.859 76.6919 118.469C76.3019 118.079 76.0827 117.55 76.0827 116.999C76.0827 116.447 76.3019 115.918 76.6919 115.528C77.082 115.138 77.611 114.919 78.1626 114.919H88.2501C88.8017 114.919 89.3308 115.138 89.7208 115.528C90.1109 115.918 90.33 116.447 90.33 116.999C90.33 117.55 90.1109 118.079 89.7208 118.469C89.3308 118.859 88.8017 119.079 88.2501 119.079ZM68.0543 119.079H57.9461C57.3944 119.079 56.8654 118.859 56.4753 118.469C56.0853 118.079 55.8662 117.55 55.8662 116.999C55.8662 116.447 56.0853 115.918 56.4753 115.528C56.8654 115.138 57.3944 114.919 57.9461 114.919H68.0543C68.606 114.919 69.135 115.138 69.525 115.528C69.9151 115.918 70.1342 116.447 70.1342 116.999C70.1342 117.55 69.9151 118.079 69.525 118.469C69.135 118.859 68.606 119.079 68.0543 119.079ZM47.8586 119.079H37.7503C37.1987 119.079 36.6696 118.859 36.2796 118.469C35.8895 118.079 35.6704 117.55 35.6704 116.999C35.6704 116.447 35.8895 115.918 36.2796 115.528C36.6696 115.138 37.1987 114.919 37.7503 114.919H47.8378C48.3894 114.919 48.9184 115.138 49.3085 115.528C49.6985 115.918 49.9177 116.447 49.9177 116.999C49.9177 117.55 49.6985 118.079 49.3085 118.469C48.9184 118.859 48.3894 119.079 47.8378 119.079H47.8586ZM27.6628 119.079H17.5545C17.0029 119.079 16.4739 118.859 16.0838 118.469C15.6937 118.079 15.4746 117.55 15.4746 116.999C15.4746 116.447 15.6937 115.918 16.0838 115.528C16.4739 115.138 17.0029 114.919 17.5545 114.919H27.6628C28.2144 114.919 28.7434 115.138 29.1335 115.528C29.5236 115.918 29.7427 116.447 29.7427 116.999C29.7427 117.55 29.5236 118.079 29.1335 118.469C28.7434 118.859 28.2144 119.079 27.6628 119.079Z" fill="black" fill-opacity="0.2"/>
<path d="M7.44602 119.079H2.07989C1.52827 119.079 0.999243 118.859 0.609187 118.469C0.219131 118.079 0 117.55 0 116.999C0 116.447 0.219131 115.918 0.609187 115.528C0.999243 115.138 1.52827 114.919 2.07989 114.919H7.44602C7.99764 114.919 8.52667 115.138 8.91673 115.528C9.30679 115.918 9.52592 116.447 9.52592 116.999C9.52592 117.55 9.30679 118.079 8.91673 118.469C8.52667 118.859 7.99764 119.079 7.44602 119.079Z" fill="black" fill-opacity="0.2"/>
<path d="M123.879 136.07H2.08013C1.51472 136.07 0.972466 135.846 0.572659 135.446C0.172852 135.046 -0.0517578 134.504 -0.0517578 133.938C-0.0517578 133.373 0.172852 132.831 0.572659 132.431C0.972466 132.031 1.51472 131.807 2.08013 131.807H123.879C124.444 131.807 124.986 132.031 125.386 132.431C125.786 132.831 126.011 133.373 126.011 133.938C126.011 134.504 125.786 135.046 125.386 135.446C124.986 135.846 124.444 136.07 123.879 136.07Z" fill="black" fill-opacity="0.2"/>
<path d="M123.878 153H118.554C118.002 153 117.473 152.781 117.083 152.391C116.693 152.001 116.474 151.472 116.474 150.921C116.474 150.369 116.693 149.84 117.083 149.45C117.473 149.06 118.002 148.841 118.554 148.841H123.878C124.43 148.841 124.959 149.06 125.349 149.45C125.739 149.84 125.958 150.369 125.958 150.921C125.958 151.472 125.739 152.001 125.349 152.391C124.959 152.781 124.43 153 123.878 153Z" fill="black" fill-opacity="0.2"/>
<path d="M108.446 153H98.3584C97.8068 153 97.2777 152.781 96.8877 152.391C96.4976 152.001 96.2785 151.472 96.2785 150.921C96.2785 150.369 96.4976 149.84 96.8877 149.45C97.2777 149.06 97.8068 148.841 98.3584 148.841H108.446C108.998 148.841 109.527 149.06 109.917 149.45C110.307 149.84 110.526 150.369 110.526 150.921C110.526 151.472 110.307 152.001 109.917 152.391C109.527 152.781 108.998 153 108.446 153ZM88.2501 153H78.1626C77.611 153 77.082 152.781 76.6919 152.391C76.3019 152.001 76.0827 151.472 76.0827 150.921C76.0827 150.369 76.3019 149.84 76.6919 149.45C77.082 149.06 77.611 148.841 78.1626 148.841H88.2501C88.8017 148.841 89.3308 149.06 89.7208 149.45C90.1109 149.84 90.33 150.369 90.33 150.921C90.33 151.472 90.1109 152.001 89.7208 152.391C89.3308 152.781 88.8017 153 88.2501 153ZM68.0543 153H57.9461C57.3944 153 56.8654 152.781 56.4753 152.391C56.0853 152.001 55.8662 151.472 55.8662 150.921C55.8662 150.369 56.0853 149.84 56.4753 149.45C56.8654 149.06 57.3944 148.841 57.9461 148.841H68.0543C68.606 148.841 69.135 149.06 69.525 149.45C69.9151 149.84 70.1342 150.369 70.1342 150.921C70.1342 151.472 69.9151 152.001 69.525 152.391C69.135 152.781 68.606 153 68.0543 153ZM47.8586 153H37.7503C37.1987 153 36.6696 152.781 36.2796 152.391C35.8895 152.001 35.6704 151.472 35.6704 150.921C35.6704 150.369 35.8895 149.84 36.2796 149.45C36.6696 149.06 37.1987 148.841 37.7503 148.841H47.8378C48.3894 148.841 48.9184 149.06 49.3085 149.45C49.6985 149.84 49.9177 150.369 49.9177 150.921C49.9177 151.472 49.6985 152.001 49.3085 152.391C48.9184 152.781 48.3894 153 47.8378 153H47.8586ZM27.6628 153H17.5545C17.0029 153 16.4739 152.781 16.0838 152.391C15.6937 152.001 15.4746 151.472 15.4746 150.921C15.4746 150.369 15.6937 149.84 16.0838 149.45C16.4739 149.06 17.0029 148.841 17.5545 148.841H27.6628C28.2144 148.841 28.7434 149.06 29.1335 149.45C29.5236 149.84 29.7427 150.369 29.7427 150.921C29.7427 151.472 29.5236 152.001 29.1335 152.391C28.7434 152.781 28.2144 153 27.6628 153Z" fill="black" fill-opacity="0.2"/>
<path d="M7.44602 153H2.07989C1.52827 153 0.999243 152.781 0.609187 152.391C0.219131 152.001 0 151.472 0 150.921C0 150.369 0.219131 149.84 0.609187 149.45C0.999243 149.06 1.52827 148.841 2.07989 148.841H7.44602C7.99764 148.841 8.52667 149.06 8.91673 149.45C9.30679 149.84 9.52592 150.369 9.52592 150.921C9.52592 151.472 9.30679 152.001 8.91673 152.391C8.52667 152.781 7.99764 153 7.44602 153Z" fill="black" fill-opacity="0.2"/>
</g>
<g clip-path="url(#clip1_970_8716)">
<path d="M111.462 68.0369L104.662 51.7556L87.2984 46.1119L95.4783 29.7657L88.6846 13.499L68.3923 54.008L111.462 68.0369Z" fill="black"/>
<path d="M138.031 56.9402L131.232 40.6589L113.868 35.0152L122.048 18.669L115.254 2.40234L94.9616 42.9113L138.031 56.9402Z" fill="black"/>
<path d="M114.772 63.4557C114.986 63.3663 115.18 63.233 115.34 63.0645C115.55 62.8396 115.689 62.5575 115.741 62.2533C115.792 61.9491 115.753 61.6361 115.629 61.3532L109.882 47.5913C109.796 47.3742 109.664 47.1788 109.494 47.019C109.324 46.8592 109.121 46.739 108.9 46.6671L96.005 42.4751L102.076 30.3276C102.179 30.1221 102.236 29.8962 102.243 29.6659C102.25 29.4356 102.206 29.2064 102.115 28.9945L96.3612 15.2181C96.2385 14.9491 96.0432 14.7198 95.7975 14.5563C95.5517 14.3929 95.2654 14.3018 94.9712 14.2935C94.6625 14.2874 94.3586 14.3684 94.0941 14.5273C93.8295 14.6861 93.615 14.9165 93.4749 15.1921L76.3216 49.4473C76.214 49.6548 76.154 49.884 76.1458 50.1182C76.1377 50.3524 76.1816 50.5856 76.2745 50.801C76.3624 51.0184 76.4974 51.2136 76.6697 51.3724C76.8419 51.5313 77.0472 51.6497 77.2704 51.7191L113.655 63.5116C114.022 63.6311 114.42 63.6112 114.772 63.4557ZM107.241 49.4979L111.353 59.3424L80.0398 49.1429L94.7621 19.6999L98.8736 29.5444L92.3158 42.7674C92.2082 42.9749 92.1481 43.2041 92.14 43.4383C92.1318 43.6725 92.1758 43.9057 92.2687 44.1211C92.3565 44.3385 92.4915 44.5337 92.6638 44.6925C92.8361 44.8514 93.0413 44.9698 93.2646 45.0392L107.241 49.4979Z" fill="black"/>
<path d="M141.197 52.4198C141.581 52.2593 141.886 51.952 142.044 51.5654C142.201 51.1788 142.199 50.7447 142.038 50.3584L136.278 36.5674C136.19 36.35 136.055 36.1548 135.883 35.9959C135.711 35.8371 135.505 35.7187 135.282 35.6493L122.387 31.4573L128.458 19.3098C128.564 19.1046 128.624 18.8782 128.633 18.6467C128.643 18.4153 128.601 18.1845 128.511 17.9707L122.757 4.1942C122.633 3.92416 122.435 3.69467 122.186 3.53216C121.938 3.36966 121.649 3.28076 121.353 3.27571C121.046 3.26217 120.741 3.33954 120.478 3.4982C120.214 3.65687 120.003 3.88985 119.871 4.16823L102.703 38.4294C102.596 38.637 102.536 38.8662 102.528 39.1004C102.519 39.3346 102.563 39.5678 102.656 39.7832C102.744 40.0006 102.879 40.1958 103.051 40.3546C103.224 40.5134 103.429 40.6319 103.652 40.7013L140.052 52.4878C140.429 52.6109 140.838 52.5867 141.197 52.4198ZM133.666 38.462L137.778 48.3065L106.32 38.1674L121.144 8.68209L125.255 18.5266L118.698 31.7496C118.59 31.9571 118.53 32.1863 118.522 32.4205C118.514 32.6547 118.558 32.8879 118.65 33.1033C118.744 33.3174 118.88 33.5096 119.052 33.6678C119.224 33.8259 119.426 33.9463 119.646 34.0214L133.666 38.462Z" fill="black"/>
</g>
<defs>
<clipPath id="clip0_970_8716">
<rect width="126" height="123" fill="white" transform="translate(0 30)"/>
</clipPath>
<clipPath id="clip1_970_8716">
<rect width="69.3636" height="59.0875" fill="white" transform="matrix(-0.922756 0.385385 0.385385 0.922756 121.006 0)"/>
</clipPath>
</defs>
</svg>
