<svg width="18" height="18" viewBox="0 0 18 18" fill="none" xmlns="http://www.w3.org/2000/svg">
<path d="M14.25 11.25H17.25V2.25H14.25M11.25 2.25H4.5C3.8775 2.25 3.345 2.625 3.12 3.165L0.855 8.4525C0.7875 8.625 0.75 8.805 0.75 9V10.5C0.75 10.8978 0.908035 11.2794 1.18934 11.5607C1.47064 11.842 1.85218 12 2.25 12H6.9825L6.27 15.4275C6.255 15.5025 6.2475 15.5775 6.2475 15.66C6.2475 15.975 6.375 16.2525 6.5775 16.455L7.3725 17.25L12.3075 12.3075C12.585 12.0375 12.75 11.6625 12.75 11.25V3.75C12.75 3.35218 12.592 2.97064 12.3107 2.68934C12.0294 2.40804 11.6478 2.25 11.25 2.25Z" fill="#BABABA"/>
</svg>
