<svg width="26" height="26" viewBox="0 0 26 26" fill="none" xmlns="http://www.w3.org/2000/svg">
<path d="M23.6794 2.88672H2.88867V23.6334H23.6794V2.88672Z" fill="white"/>
<mask id="mask0_1073_11558" style="mask-type:luminance" maskUnits="userSpaceOnUse" x="2" y="2" width="22" height="22">
<path d="M23.6794 2.88281H2.88867V23.6295H23.6794V2.88281Z" fill="white"/>
</mask>
<g mask="url(#mask0_1073_11558)">
<path d="M26.0774 1.92067L21.55 5.62378L13.3534 -1.07422L5.17998 5.61915L0.434571 1.75866C0.392823 2.3419 0.355713 2.92514 0.323242 3.50375L5.17998 7.45682L13.3534 0.777336L21.55 7.45682L25.9893 3.8324C26.0125 3.19362 26.0542 2.55483 26.0774 1.92067Z" fill="black"/>
<path d="M25.8733 7.17643L21.55 10.7129L13.3534 4.01953L5.17998 10.7129L0.174805 6.63485C0.174805 7.23661 0.133057 7.83374 0.119141 8.43086L5.17998 12.5506L13.3534 5.87109L21.55 12.5506L25.8315 9.05113L25.8733 7.17643Z" fill="black"/>
<path d="M25.771 12.3496L21.5498 15.7981L13.3532 9.10938L5.17974 15.7981L0.0771484 11.646V12.5348V13.4929L5.14263 17.6589L13.3532 10.9609L21.5498 17.6358L25.7246 14.2104L25.771 12.3496Z" fill="black"/>
<path d="M25.6875 17.735C25.6875 17.6563 25.6875 17.5822 25.6875 17.5082L21.5451 20.8919L13.3532 14.2031L5.17974 20.8919L0.169922 16.8138C0.169922 17.4433 0.21167 18.0775 0.239503 18.707L5.17974 22.7295L13.3532 16.0547L21.5498 22.7295L25.6504 19.3782C25.6643 18.832 25.6782 18.2812 25.6875 17.735Z" fill="black"/>
<path d="M25.5437 22.7137L21.5498 25.9539L13.3531 19.293L5.17973 25.9771L0.374023 22.0703C0.401856 22.7045 0.425049 23.334 0.452882 23.9681L5.17973 27.8148L13.3531 21.1445L21.5498 27.8148L25.488 24.5977L25.5437 22.7137Z" fill="black"/>
</g>
<rect x="0.361111" y="0.361111" width="25.2778" height="25.2778" stroke="white" stroke-width="0.722222"/>
</svg>
