<svg width="18" height="15" viewBox="0 0 18 15" fill="none" xmlns="http://www.w3.org/2000/svg">
<path d="M17.25 6.75C17.25 6.35218 17.092 5.97064 16.8107 5.68934C16.5294 5.40804 16.1478 5.25 15.75 5.25H11.01L11.73 1.8225C11.745 1.7475 11.7525 1.665 11.7525 1.5825C11.7525 1.275 11.625 0.99 11.4225 0.7875L10.6275 0L5.6925 4.935C5.415 5.2125 5.25 5.5875 5.25 6V13.5C5.25 13.8978 5.40804 14.2794 5.68934 14.5607C5.97064 14.842 6.35218 15 6.75 15H13.5C14.1225 15 14.655 14.625 14.88 14.085L17.145 8.7975C17.2125 8.625 17.25 8.445 17.25 8.25V6.75ZM0.75 15H3.75V6H0.75V15Z" fill="#BABABA"/>
</svg>
