<svg width="21" height="21" viewBox="0 0 21 21" fill="none" xmlns="http://www.w3.org/2000/svg">
<g clip-path="url(#clip0_200_3080)">
<path d="M10.5 20.5C16.0228 20.5 20.5 16.0228 20.5 10.5C20.5 4.97715 16.0228 0.5 10.5 0.5C4.97715 0.5 0.5 4.97715 0.5 10.5C0.5 16.0228 4.97715 20.5 10.5 20.5Z" fill="url(#paint0_linear_200_3080)"/>
<path d="M17.7781 10.6428H15.9903C15.9903 7.0258 13.0264 4.09375 9.37001 4.09375C5.75889 4.09375 2.82301 6.95402 2.75117 10.5091C2.67682 14.1839 6.16198 17.375 9.87723 17.375H10.3445C13.62 17.375 18.0101 14.8385 18.696 11.748C18.8228 11.1783 18.3678 10.6428 17.7781 10.6428ZM6.71322 10.804C6.71322 11.2877 6.31331 11.6833 5.82436 11.6833C5.3354 11.6833 4.93551 11.2875 4.93551 10.804V9.38147C4.93551 8.89777 5.3354 8.50217 5.82436 8.50217C6.31331 8.50217 6.71322 8.89777 6.71322 9.38147V10.804ZM9.7997 10.804C9.7997 11.2877 9.39981 11.6833 8.91086 11.6833C8.4219 11.6833 8.022 11.2875 8.022 10.804V9.38147C8.022 8.89777 8.42207 8.50217 8.91086 8.50217C9.39981 8.50217 9.7997 8.89777 9.7997 9.38147V10.804Z" fill="url(#paint1_linear_200_3080)"/>
</g>
<defs>
<linearGradient id="paint0_linear_200_3080" x1="10.5" y1="0.5" x2="10.5" y2="20.5" gradientUnits="userSpaceOnUse">
<stop stop-color="#534BB1"/>
<stop offset="1" stop-color="#551BF9"/>
</linearGradient>
<linearGradient id="paint1_linear_200_3080" x1="10.7337" y1="4.09375" x2="10.7337" y2="17.375" gradientUnits="userSpaceOnUse">
<stop stop-color="white"/>
<stop offset="1" stop-color="white" stop-opacity="0.82"/>
</linearGradient>
<clipPath id="clip0_200_3080">
<rect width="20" height="20" fill="white" transform="translate(0.5 0.5)"/>
</clipPath>
</defs>
</svg>
