<svg width="20" height="20" viewBox="0 0 20 20" fill="none" xmlns="http://www.w3.org/2000/svg">
<path d="M15.5281 14.2319L19.4542 18.1571L18.1571 19.4542L14.2319 15.5281C12.7714 16.6989 10.9548 17.3357 9.08301 17.333C4.52901 17.333 0.833008 13.637 0.833008 9.08301C0.833008 4.52901 4.52901 0.833008 9.08301 0.833008C13.637 0.833008 17.333 4.52901 17.333 9.08301C17.3357 10.9548 16.6989 12.7714 15.5281 14.2319ZM13.6893 13.5518C14.8526 12.3554 15.5023 10.7517 15.4997 9.08301C15.4997 5.53826 12.6278 2.66634 9.08301 2.66634C5.53826 2.66634 2.66634 5.53826 2.66634 9.08301C2.66634 12.6278 5.53826 15.4997 9.08301 15.4997C10.7517 15.5023 12.3554 14.8526 13.5518 13.6893L13.6893 13.5518Z" fill="white"/>
</svg>
