<svg width="300" height="42" viewBox="0 0 300 42" fill="none" xmlns="http://www.w3.org/2000/svg">
<path d="M299.775 42V23.5756C299.775 15.5956 294.176 11.1609 287.036 11.1609C282.547 11.1609 279.015 12.6556 276.996 15.3547V0H268.302V42H276.996V25.7682C276.996 20.5738 280.16 18.3565 284.406 18.3565C288.306 18.3565 291.081 20.4565 291.081 24.5329V42H299.775Z" fill="#202020"/>
<path d="M27.0035 32.4542C27.0035 38.8979 21.0049 42 14.1785 42C7.79232 42 3.07495 39.4938 0.775391 34.899L7.92372 31.1396C8.81726 33.5967 10.9854 35.0157 14.1785 35.0157C16.8066 35.0157 18.5805 34.1803 18.5805 32.4542C18.5805 30.748 16.0495 30.076 12.9705 29.2585C8.19032 27.9894 2.08942 26.3696 2.08942 19.9844C2.08942 13.8969 7.64121 10.5 14.2114 10.5C19.3821 10.5 23.8498 12.7052 26.3399 16.8209L19.3427 20.4021C18.4771 18.4953 16.4525 17.2771 14.2376 17.3307C12.1943 17.3307 10.5386 18.1661 10.5386 19.7878C10.5386 21.5083 13.0231 22.147 16.0618 22.9282C20.8458 24.1581 27.0035 25.7411 27.0035 32.4542Z" fill="#202020"/>
<path d="M61.1 23.1808V42H52.4039V24.1586C52.4039 19.9948 49.6278 17.8498 45.7344 17.8498C41.487 17.8498 38.3223 20.1147 38.3223 25.4204V42H29.6263V11.358H38.3223V14.7837C40.3419 12.0267 43.8744 10.5 48.3647 10.5C55.5062 10.5 61.1 15.0297 61.1 23.1808Z" fill="#202020"/>
<path d="M79.834 35.3601V32.2474H94.0481C94.81 30.3416 95.1997 28.3063 95.1959 26.2526C95.1506 19.2712 90.564 13.1412 83.9003 11.1558C77.2365 9.17045 70.064 11.797 66.2361 17.6245L79.8824 23.7528V26.6227L65.2877 33.1757C67.7668 38.1731 72.6701 41.5017 78.211 41.9487C83.7519 42.3958 89.1213 39.8959 92.3627 35.3601H79.834Z" fill="#202020"/>
<path d="M64.6981 20.3974C64.0503 22.3868 63.7195 24.5045 63.7228 26.6404C63.7229 28.0759 63.8713 29.5058 64.1646 30.8974L74.214 25.4759L64.6981 20.3974Z" fill="#202020"/>
<path d="M145.03 10.5L134.996 42H127.231L121.428 22.9132L115.618 42H107.859L97.8193 10.5H106.469L111.843 29.8332L117.587 10.5H125.288L131.032 29.8981L136.393 10.5H145.03Z" fill="#202020"/>
<path d="M164.589 10.5022C154.835 10.5022 147.653 17.3567 147.653 26.2442C147.653 35.1379 154.835 41.9986 164.589 41.9986C170.595 42.0743 176.168 39.1005 179.126 34.2412L171.937 30.4208C170.655 32.8715 167.893 34.3579 164.556 34.3579C159.626 34.3579 155.965 31.0105 155.965 26.2442C155.965 21.478 159.613 18.0753 164.556 18.0753C167.621 17.9812 170.469 19.5383 171.871 22.0738L178.968 18.192C176.064 13.3627 170.54 10.408 164.589 10.5022Z" fill="#202020"/>
<path d="M202.732 10.5V19.4001C197.734 18.9042 191.383 20.7605 191.383 27.2385V42H181.749V11.123H191.383V16.4313C193.328 12.2292 197.995 10.5 202.732 10.5Z" fill="#202020"/>
<path fill-rule="evenodd" clip-rule="evenodd" d="M236.828 11.3354V41.1707H229.232V37.6448C227.12 40.3292 223.942 42 219.651 42C211.831 42 205.354 35.1386 205.354 26.2439C205.354 17.3492 211.819 10.5 219.639 10.5C223.93 10.5 227.107 12.1647 229.22 14.8552V11.3354H236.828ZM229.232 26.2439C229.232 21.2375 225.763 17.8344 221.061 17.8344C216.358 17.8344 212.95 21.2375 212.95 26.2439C212.95 31.2502 216.418 34.6594 221.061 34.6594C225.703 34.6594 229.232 31.2563 229.232 26.2439Z" fill="#202020"/>
<path d="M265.679 32.4542C265.679 38.8979 259.679 42 252.851 42C246.47 42 241.744 39.4938 239.451 34.899L246.594 31.1396C247.488 33.5967 249.663 35.0157 252.851 35.0157C255.479 35.0157 257.254 34.1803 257.254 32.4542C257.254 30.748 254.727 30.076 251.654 29.2585C246.882 27.9894 240.791 26.3696 240.791 19.9844C240.791 13.8969 246.338 10.5 252.916 10.5C258.088 10.5 262.557 12.7052 265.041 16.8209L258.023 20.4021C257.156 18.4964 255.131 17.2789 252.916 17.3307C250.873 17.3307 249.217 18.1661 249.217 19.7878C249.217 21.5083 251.701 22.147 254.739 22.9282C259.522 24.1581 265.679 25.7411 265.679 32.4542Z" fill="#202020"/>
</svg>
