<svg width="301" height="43" viewBox="0 0 301 43" fill="none" xmlns="http://www.w3.org/2000/svg">
<path d="M300.094 42.0096V23.581C300.094 15.5992 294.489 11.1634 287.341 11.1634C282.847 11.1634 279.312 12.6585 277.29 15.3582V0H268.587V42.0096H277.29V25.7742C277.29 20.5785 280.458 18.3607 284.709 18.3607C288.612 18.3607 291.391 20.4612 291.391 24.5386V42.0096H300.094Z" fill="#FFFFFF"/>
<path d="M27.0314 32.4616C27.0314 38.9068 21.0265 42.0096 14.1928 42.0096C7.7998 42.0096 3.0774 39.5028 0.775391 34.907L7.93134 31.1468C8.82584 33.6044 10.9963 35.0237 14.1928 35.0237C16.8237 35.0237 18.5995 34.1881 18.5995 32.4616C18.5995 30.755 16.0658 30.0829 12.9835 29.2653C8.19823 27.9958 2.09082 26.3757 2.09082 19.989C2.09082 13.9001 7.64853 10.5024 14.2257 10.5024C19.4019 10.5024 23.8744 12.7082 26.3671 16.8247L19.3625 20.4068C18.496 18.4995 16.4692 17.2811 14.252 17.3347C12.2065 17.3347 10.5491 18.1703 10.5491 19.7924C10.5491 21.5132 13.0361 22.1521 16.0781 22.9335C20.8671 24.1636 27.0314 25.7471 27.0314 32.4616Z" fill="#FFFFFF"/>
<path d="M61.1643 23.1861V42.0096H52.459V24.1642C52.459 19.9994 49.6799 17.8539 45.7823 17.8539C41.5304 17.8539 38.3623 20.1193 38.3623 25.4262V42.0096H29.657V11.3606H38.3623V14.7871C40.3841 12.0295 43.9204 10.5024 48.4155 10.5024C55.5645 10.5024 61.1643 15.0332 61.1643 23.1861Z" fill="#FFFFFF"/>
<path d="M79.9183 35.3682V32.2548H94.1475C94.9103 30.3486 95.3004 28.3128 95.2965 26.2586C95.2512 19.2756 90.6598 13.1442 83.9889 11.1584C77.318 9.17255 70.1379 11.7998 66.3059 17.6285L79.9667 23.7582V26.6288L65.3565 33.1834C67.8382 38.1819 72.7467 41.5112 78.2936 41.9584C83.8404 42.4055 89.2155 39.9051 92.4604 35.3682H79.9183Z" fill="#FFFFFF"/>
<path d="M64.7662 20.4021C64.1178 22.3919 63.7866 24.5101 63.7899 26.6466C63.79 28.0824 63.9386 29.5126 64.2322 30.9045L74.2923 25.4818L64.7662 20.4021Z" fill="#FFFFFF"/>
<path d="M145.184 10.5024L135.139 42.0096H127.366L121.556 22.9185L115.741 42.0096H107.973L97.9227 10.5024H106.581L111.961 29.8401L117.712 10.5024H125.421L131.171 29.905L136.538 10.5024H145.184Z" fill="#FFFFFF"/>
<path d="M164.763 10.5046C155 10.5046 147.809 17.3607 147.809 26.2503C147.809 35.146 155 42.0082 164.763 42.0082C170.776 42.084 176.355 39.1095 179.316 34.2491L172.119 30.4278C170.836 32.8791 168.071 34.3658 164.73 34.3658C159.796 34.3658 156.131 31.0176 156.131 26.2503C156.131 21.483 159.782 18.0795 164.73 18.0795C167.799 17.9854 170.65 19.5428 172.053 22.0789L179.158 18.1962C176.251 13.3657 170.721 10.4104 164.763 10.5046Z" fill="#FFFFFF"/>
<path d="M202.947 10.5024V19.4046C197.944 18.9086 191.586 20.7653 191.586 27.2448V42.0096H181.942V11.1256H191.586V16.4351C193.534 12.232 198.206 10.5024 202.947 10.5024Z" fill="#FFFFFF"/>
<path fill-rule="evenodd" clip-rule="evenodd" d="M237.08 11.338V41.1802H229.475V37.6534C227.361 40.3384 224.18 42.0096 219.884 42.0096C212.056 42.0096 205.572 35.1466 205.572 26.2499C205.572 17.3531 212.044 10.5024 219.872 10.5024C224.168 10.5024 227.349 12.1675 229.463 14.8586V11.338H237.08ZM229.475 26.2499C229.475 21.2424 226.003 17.8385 221.295 17.8385C216.587 17.8385 213.176 21.2424 213.176 26.2499C213.176 31.2574 216.648 34.6674 221.295 34.6674C225.943 34.6674 229.475 31.2635 229.475 26.2499Z" fill="#FFFFFF"/>
<path d="M265.961 32.4616C265.961 38.9068 259.955 42.0096 253.119 42.0096C246.731 42.0096 242.001 39.5028 239.705 34.907L246.856 31.1468C247.751 33.6044 249.929 35.0237 253.119 35.0237C255.751 35.0237 257.527 34.1881 257.527 32.4616C257.527 30.755 254.998 30.0829 251.921 29.2653C247.144 27.9958 241.047 26.3757 241.047 19.989C241.047 13.9001 246.6 10.5024 253.185 10.5024C258.363 10.5024 262.836 12.7082 265.323 16.8247L258.297 20.4068C257.429 18.5007 255.402 17.2828 253.185 17.3347C251.139 17.3347 249.481 18.1703 249.481 19.7924C249.481 21.5132 251.968 22.1521 255.01 22.9335C259.798 24.1636 265.961 25.7471 265.961 32.4616Z" fill="#FFFFFF"/>
</svg>
