<svg width="14" height="16" viewBox="0 0 14 16" fill="none" xmlns="http://www.w3.org/2000/svg">
<path d="M4.83301 11.75L6.99967 9.58333L9.16634 11.75L10.333 10.5833L8.16634 8.41667L10.333 6.25L9.16634 5.08333L6.99967 7.25L4.83301 5.08333L3.66634 6.25L5.83301 8.41667L3.66634 10.5833L4.83301 11.75ZM2.83301 15.5C2.37467 15.5 1.98217 15.3367 1.65551 15.01C1.32884 14.6833 1.16579 14.2911 1.16634 13.8333V3H0.333008V1.33333H4.49967V0.5H9.49967V1.33333H13.6663V3H12.833V13.8333C12.833 14.2917 12.6697 14.6842 12.343 15.0108C12.0163 15.3375 11.6241 15.5006 11.1663 15.5H2.83301Z" fill="white"/>
</svg>
