<svg width="20" height="21" viewBox="0 0 20 21" fill="none" xmlns="http://www.w3.org/2000/svg">
<path fill-rule="evenodd" clip-rule="evenodd" d="M10 0.5C15.5234 0.5 20 4.97656 20 10.5C20 16.0234 15.5234 20.5 10 20.5C4.47656 20.5 0 16.0234 0 10.5C0 4.97656 4.47656 0.5 10 0.5Z" fill="url(#paint0_radial_200_3003)"/>
<path d="M6.35547 8.22363C8.36719 6.25879 11.6328 6.25879 13.6445 8.22363L13.8867 8.46191C13.9883 8.55957 13.9883 8.71973 13.8867 8.81738L13.0586 9.62598C13.0078 9.67676 12.9258 9.67676 12.875 9.62598L12.543 9.30176C11.1367 7.93066 8.86328 7.93066 7.45703 9.30176L7.10156 9.64941C7.05078 9.7002 6.96875 9.7002 6.91797 9.64941L6.08984 8.84082C5.98828 8.74316 5.98828 8.58301 6.08984 8.48535L6.35547 8.22363ZM15.3594 9.89551L16.0977 10.6143C16.1992 10.7119 16.1992 10.8721 16.0977 10.9697L12.7734 14.2158C12.6719 14.3135 12.5078 14.3135 12.4102 14.2158L10.0508 11.9111C10.0273 11.8877 9.98437 11.8877 9.96094 11.9111L7.60156 14.2158C7.5 14.3135 7.33594 14.3135 7.23828 14.2158L3.90234 10.9697C3.80078 10.8721 3.80078 10.7119 3.90234 10.6143L4.64062 9.89551C4.74219 9.79785 4.90625 9.79785 5.00391 9.89551L7.36328 12.2002C7.38672 12.2236 7.42969 12.2236 7.45312 12.2002L9.8125 9.89551C9.91406 9.79785 10.0781 9.79785 10.1758 9.89551L12.5352 12.2002C12.5586 12.2236 12.6016 12.2236 12.625 12.2002L14.9844 9.89551C15.0937 9.79785 15.2578 9.79785 15.3594 9.89551Z" fill="white"/>
<defs>
<radialGradient id="paint0_radial_200_3003" cx="0" cy="0" r="1" gradientUnits="userSpaceOnUse" gradientTransform="translate(6.19888e-05 10.5003) scale(20)">
<stop stop-color="#5D9DF6"/>
<stop offset="1" stop-color="#006FFF"/>
</radialGradient>
</defs>
</svg>
