<svg width="22" height="18" viewBox="0 0 22 18" fill="none" xmlns="http://www.w3.org/2000/svg">
<path d="M17.6 0H4.4C1.969 0 0 2.01375 0 4.5V13.5C0 15.9862 1.969 18 4.4 18H17.6C20.031 18 22 15.9862 22 13.5V4.5C22 2.01375 20.031 0 17.6 0ZM15.554 10.9913C15.29 11.2163 14.927 11.3063 14.586 11.2163L2.365 8.15625C2.695 7.335 3.476 6.75 4.4 6.75H17.6C18.337 6.75 18.986 7.1325 19.393 7.695L15.554 10.9913ZM4.4 2.25H17.6C18.81 2.25 19.8 3.2625 19.8 4.5V5.11875C19.151 4.73625 18.403 4.5 17.6 4.5H4.4C3.597 4.5 2.849 4.73625 2.2 5.11875V4.5C2.2 3.2625 3.19 2.25 4.4 2.25Z" fill="white"/>
</svg>
