<svg width="26" height="30" viewBox="0 0 26 30" fill="none" xmlns="http://www.w3.org/2000/svg">
<path d="M23.6022 4.11035H2.81152V25.655H23.6022V4.11035Z" fill="black"/>
<mask id="mask0_907_3419" style="mask-type:luminance" maskUnits="userSpaceOnUse" x="2" y="4" width="22" height="22">
<path d="M23.6022 4.11035H2.81152V25.655H23.6022V4.11035Z" fill="white"/>
</mask>
<g mask="url(#mask0_907_3419)">
<path d="M26.0002 3.11008L21.4729 6.95562L13.2762 0L5.10283 6.95081L0.357423 2.94184C0.315674 3.54751 0.278565 4.15318 0.246094 4.75405L5.10283 8.85916L13.2762 1.92277L21.4729 8.85916L25.9121 5.09534C25.9353 4.43198 25.977 3.76863 26.0002 3.11008Z" fill="white"/>
<path d="M25.7961 8.56641L21.4729 12.2389L13.2762 5.28809L5.10283 12.2389L0.0976568 8.004C0.0976568 8.6289 0.0559083 9.24899 0.0419922 9.86908L5.10283 14.1472L13.2762 7.21085L21.4729 14.1472L25.7544 10.5132L25.7961 8.56641Z" fill="white"/>
<path d="M25.6938 13.94L21.4726 17.5212L13.276 10.5752L5.10259 17.5212L0 13.2094V14.1323V15.1274L5.06548 19.4536L13.276 12.498L21.4726 19.4295L25.6475 15.8724L25.6938 13.94Z" fill="white"/>
<path d="M25.6103 19.531C25.6103 19.4492 25.6103 19.3723 25.6103 19.2954L21.468 22.8093L13.276 15.8633L5.10259 22.8093L0.0927734 18.5744C0.0927734 19.2281 0.134522 19.8867 0.162354 20.5404L5.10259 24.7176L13.276 17.786L21.4726 24.7176L25.5732 21.2374C25.5872 20.6702 25.6011 20.0982 25.6103 19.531Z" fill="white"/>
<path d="M25.4665 24.7027L21.4726 28.0676L13.276 21.1504L5.10258 28.0916L0.296875 24.0345C0.324707 24.6931 0.347901 25.3468 0.375733 26.0054L5.10258 29.9999L13.276 23.0732L21.4726 29.9999L25.4109 26.6591L25.4665 24.7027Z" fill="white"/>
</g>
</svg>
