<svg width="376" height="305" viewBox="0 0 376 305" fill="none" xmlns="http://www.w3.org/2000/svg">
<g clip-path="url(#clip0_852_9301)">
<mask id="mask0_852_9301" style="mask-type:luminance" maskUnits="userSpaceOnUse" x="43" y="4" width="285" height="285">
<path d="M286.064 246.683C341.468 191.279 341.468 101.451 286.064 46.0476C230.66 -9.3563 140.833 -9.35629 85.429 46.0476C30.0251 101.452 30.0251 191.279 85.429 246.683C140.833 302.087 230.66 302.087 286.064 246.683Z" fill="white"/>
</mask>
<g mask="url(#mask0_852_9301)">
<path d="M39.7383 28.0706C69.6128 25.6368 97.1871 14.7655 127.291 12.2075C148.575 10.4036 169.239 5.52635 190.657 4.8105C248.211 3.03521 306.146 4.8105 363.7 4.8105" stroke="black" stroke-width="0.75" stroke-miterlimit="10"/>
<path d="M39.7012 32.7099C69.2894 29.8466 97.1213 20.6551 126.843 17.9445C148.557 15.9592 169.278 10.137 191.183 9.44027C248.374 7.63634 306.453 9.61207 363.701 10.0416" stroke="black" stroke-width="0.75" stroke-miterlimit="10"/>
<path d="M39.5488 36.3932C68.593 33.6348 97.0835 27.0491 126.099 23.9089C148.653 21.456 169.641 13.8203 192.482 13.0949C217.24 12.3123 241.522 16.7218 266.213 16.9795C298.713 17.3232 331.164 15.0134 363.663 15.2329" stroke="black" stroke-width="0.75" stroke-miterlimit="10"/>
<path d="M39.4141 39.3236C67.8092 37.0615 97.0442 33.8163 125.239 30.094C148.938 26.9729 170.347 16.7316 194.532 15.9775C219.348 15.2331 242.952 22.6015 267.587 23.6132C299.656 24.9208 331.612 20.4348 363.701 20.4348" stroke="black" stroke-width="0.75" stroke-miterlimit="10"/>
<path d="M39.2051 41.6524C67.1611 40.1539 96.4725 40.2302 124.152 36.4601C149.359 33.0336 171.187 18.9076 197.034 18.2491C222.041 17.6191 244.671 28.4522 269.258 30.5138C300.698 33.1481 332.252 25.9897 363.673 25.6079" stroke="black" stroke-width="0.75" stroke-miterlimit="10"/>
<path d="M38.957 43.5516C66.369 43.0266 95.8618 47.6366 122.949 42.9598C149.674 38.3689 172.295 20.5396 199.964 20.0528C225.277 19.6329 246.733 34.2456 271.224 37.5862C301.767 41.7572 333.111 31.6208 363.673 30.7714" stroke="black" stroke-width="0.75" stroke-miterlimit="10"/>
<path d="M38.6895 45.174C65.8056 45.7562 94.802 55.1767 121.727 49.5359C149.788 43.666 173.764 21.7421 203.162 21.6371C228.932 21.5416 248.976 40.0772 273.4 44.859C302.931 50.5858 334.18 37.3665 363.711 35.9921" stroke="black" stroke-width="0.75" stroke-miterlimit="10"/>
<path d="M38.4219 46.6915C65.538 48.4477 93.1886 62.8123 120.429 56.1502C149.874 48.9536 175.291 23.2023 206.425 23.0687C232.52 22.9637 251.39 45.9757 275.595 52.1415C304 59.4431 335.268 43.0837 363.701 41.1748" stroke="black" stroke-width="0.75" stroke-miterlimit="10"/>
<path d="M38.1445 48.2478C65.5565 51.2162 91.0883 70.4962 119.149 62.7556C149.807 54.28 176.961 24.5104 209.641 24.5773C236.137 24.5773 253.861 51.8175 277.771 59.434C305.116 68.1387 336.327 48.7823 363.672 46.3866" stroke="black" stroke-width="0.75" stroke-miterlimit="10"/>
<path d="M37.8867 50.0233C65.7473 54.1466 88.7784 78.1321 117.928 69.2843C149.644 59.6633 178.631 25.9996 212.686 26.2573C239.583 26.4578 256.209 57.7544 279.823 66.5832C306.29 76.5191 337.233 54.3852 363.7 51.56" stroke="black" stroke-width="0.75" stroke-miterlimit="10"/>
<path d="M37.6387 52.1608C65.9956 57.3149 86.3733 85.5668 116.773 75.7168C149.415 65.1128 180.12 27.8603 215.359 28.3376C242.723 28.7002 258.223 63.6525 281.608 73.5788C307.464 84.5551 337.921 59.911 363.691 56.7517" stroke="black" stroke-width="0.75" stroke-miterlimit="10"/>
<path d="M37.4766 54.7951C66.3584 60.6937 84.1686 92.6967 115.828 81.9399C131.911 76.4804 147.449 65.5232 161.804 56.7995C177.076 47.5031 198.522 30.5615 217.621 30.9146C245.52 31.43 259.808 69.5033 283.125 80.2792C308.647 92.1049 338.379 65.2942 363.701 61.9345" stroke="black" stroke-width="0.75" stroke-miterlimit="10"/>
<path d="M37.3438 58.1937C66.7601 64.455 82.2032 99.4072 115.046 88.0396C131.568 82.3129 147.603 70.6303 162.263 61.4866C177.706 51.8561 199.735 33.8646 219.244 34.2846C247.811 34.8954 260.696 75.3835 284.147 86.7797C309.622 99.0922 338.551 70.6399 363.654 67.1752" stroke="black" stroke-width="0.75" stroke-miterlimit="10"/>
<path d="M37.2656 62.4311C67.2738 68.5396 80.7125 105.515 114.491 93.8614C131.28 88.0773 147.715 75.7839 162.51 66.3921C178.124 56.4848 200.249 38.0638 220.101 38.5028C249.499 39.1423 260.742 81.1384 284.728 92.7733C310.498 105.258 338.473 75.698 363.7 72.3383" stroke="black" stroke-width="0.75" stroke-miterlimit="10"/>
<path d="M37.1719 67.5375C67.0655 73.6555 80.6951 110.545 114.273 98.815C131.138 92.926 147.679 80.8331 162.597 71.4889C178.269 61.7153 200.537 43.342 220.313 43.6283C249.806 44.0196 260.706 86.5025 284.672 98.0897C310.719 110.679 338.255 80.7376 363.701 77.502" stroke="black" stroke-width="0.75" stroke-miterlimit="10"/>
<path d="M36.5605 73.0355C65.9769 79.2968 81.5441 113.972 114.167 102.519C131.09 96.5629 147.573 85.3385 162.845 76.3857C178.622 67.1274 201.51 49.1741 220.962 49.3173C249.786 49.5368 261.049 91.7715 284.3 103.273C310.337 116.139 338.15 85.9112 363.663 82.6851" stroke="black" stroke-width="0.75" stroke-miterlimit="10"/>
<path d="M35.4551 78.791C64.6901 84.7278 82.1185 116.206 114.016 105.43C131.073 99.7032 147.632 89.4905 163.391 81.0435C179.445 72.4534 202.962 55.2732 222.204 55.5023C250.361 55.8554 261.232 97.2025 283.843 108.637C309.766 121.742 338.247 91.1226 363.703 87.887" stroke="black" stroke-width="0.75" stroke-miterlimit="10"/>
<path d="M33.9473 84.7471C63.1346 89.9966 82.6246 117.418 113.835 107.654C131.016 102.29 147.833 93.2227 164.03 85.5011C180.504 77.7032 204.671 61.6302 223.76 62.1265C251.277 62.8328 261.194 102.777 283.175 114.144C308.946 127.45 338.266 96.3438 363.684 93.07" stroke="black" stroke-width="0.75" stroke-miterlimit="10"/>
<path d="M32.123 90.8644C61.3199 95.1213 83.072 117.895 113.624 109.467C131.033 104.695 148.099 96.763 164.754 89.9195C181.763 82.9234 206.483 68.2915 225.582 69.1601C252.536 70.3818 260.897 108.57 282.43 119.746C308.076 133.109 338.275 101.612 363.702 98.2424" stroke="black" stroke-width="0.75" stroke-miterlimit="10"/>
<path d="M30.0996 97.088C59.2678 100.171 83.4442 117.924 113.376 110.918C131.014 106.795 148.395 100.152 165.489 94.301C183.099 88.2784 208.316 75.2119 227.472 76.5768C254.559 78.4857 259.608 115.309 281.571 125.483C308.505 137.967 337.149 106.986 363.702 103.454" stroke="black" stroke-width="0.75" stroke-miterlimit="10"/>
<path d="M27.9512 103.377C55.4682 105.038 81.4008 117.408 109.195 112.922C132.273 109.219 154.904 101.678 177.429 95.6366C192.586 91.5706 212.744 83.2287 228.702 85.0517C256.381 88.2587 259.025 123.077 282.925 132.402C308.915 142.539 338.121 111.958 363.701 108.541" stroke="black" stroke-width="0.75" stroke-miterlimit="10"/>
<path d="M25.7754 109.667C53.5883 110.173 80.9908 117.484 108.813 114.096C132.131 111.232 155.181 105.611 178.193 101.029C193.855 97.9176 214.071 90.9692 230.211 93.1167C256.935 96.6577 258.844 129.157 281.866 138.243C307.76 148.456 338.179 117.245 363.691 113.828" stroke="black" stroke-width="0.75" stroke-miterlimit="10"/>
<path d="M23.6855 115.929C51.9184 115.346 80.2372 117.733 108.422 115.394C131.959 113.485 155.372 109.667 178.775 106.623C194.934 104.494 215.045 98.987 231.404 101.411C257.069 105.229 258.692 135.314 280.826 144.047C306.72 154.26 338.093 122.514 363.701 119.021" stroke="black" stroke-width="0.75" stroke-miterlimit="10"/>
<path d="M21.7559 122.103C50.5232 120.557 79.2237 118.286 108.01 117.026C131.709 115.947 155.389 114.095 179.06 112.511C195.677 111.394 215.52 107.376 232.109 109.972C256.772 113.79 258.471 141.574 279.832 149.849C305.879 159.948 337.996 127.773 363.719 124.203" stroke="black" stroke-width="0.75" stroke-miterlimit="10"/>
<path d="M20.0859 128.136C49.4069 125.845 78.1074 119.46 107.581 119.164C131.385 118.916 155.189 118.887 178.994 118.763C196.002 118.668 215.358 116.09 232.214 118.763C255.923 122.533 258.194 147.941 278.858 155.615C305.326 165.436 337.634 133.042 363.7 129.386" stroke="black" stroke-width="0.75" stroke-miterlimit="10"/>
<path d="M18.7793 134.016C48.5965 131.286 77.0012 121.34 107.153 121.989C147.497 122.867 191.727 121.627 231.585 127.812C254.416 131.362 257.871 154.441 278.01 161.361C305.202 170.695 337.043 138.368 363.701 134.636" stroke="black" stroke-width="0.75" stroke-miterlimit="10"/>
<path d="M17.9297 139.618C46.8402 137.022 73.9086 124.537 103.191 125.425C145.006 126.713 189.207 131.295 230.64 136.878C252.936 139.885 258.777 162.649 279.451 167.478C307.608 174.026 336.213 143.531 363.701 139.799" stroke="black" stroke-width="0.75" stroke-miterlimit="10"/>
<path d="M17.5957 144.963C46.7448 142.834 73.3169 128.537 102.838 130.045C144.481 132.164 186.43 141.67 227.872 146.366C249.825 148.857 258.329 169.101 278.974 172.938C308.314 178.388 335.172 148.838 363.672 144.963" stroke="black" stroke-width="0.75" stroke-miterlimit="10"/>
<path d="M17.959 150.165C46.8981 147.578 74.3292 134.559 103.602 136.039C144.148 138.1 185.581 145.831 225.859 150.947C247.811 153.734 258.549 173.635 279.433 177.357C308.391 182.521 335.593 154.326 363.702 150.155" stroke="black" stroke-width="0.75" stroke-miterlimit="10"/>
<path d="M18.9023 155.367C49.0155 152.637 78.2505 141.546 108.669 143.408C146.408 145.717 185.302 150.003 222.746 155.138C244.555 158.125 257.383 175.745 278.104 180.24C307.416 186.616 335.372 159.652 363.719 155.348" stroke="black" stroke-width="0.75" stroke-miterlimit="10"/>
<path d="M20.3555 160.587C50.6022 158.23 80.639 150.241 111.029 151.386C146.84 152.741 184.112 154.488 219.665 158.898C242.181 161.694 257.729 178.559 279.395 182.759C308.535 188.419 335.431 164.558 363.702 160.53" stroke="black" stroke-width="0.75" stroke-miterlimit="10"/>
<path d="M22.2051 165.809C86.631 162.258 151.82 155.93 216.361 162.478C239.898 164.864 258.204 180.737 281.092 184.602C309.802 189.451 335.668 169.207 363.7 165.723" stroke="black" stroke-width="0.75" stroke-miterlimit="10"/>
<path d="M24.3438 171.039C55.3827 170.247 86.4408 170.533 117.47 169.331C148.757 168.118 181.61 163.795 212.849 165.999C237.579 167.746 258.854 181.7 283.011 185.986C310.605 190.873 336.556 173.626 363.701 170.915" stroke="black" stroke-width="0.75" stroke-miterlimit="10"/>
<path d="M26.6621 176.269C58.0828 176.527 89.809 181.729 121.153 178.932C150.102 176.346 180.167 168.643 209.24 169.626C235.259 170.504 259.512 182.989 285.062 187.074C311.787 191.321 337.185 177.978 363.681 176.097" stroke="black" stroke-width="0.75" stroke-miterlimit="10"/>
<path d="M29.0488 181.509C60.5459 182.845 93.5702 193.287 125 188.705C151.725 184.821 178.612 173.692 205.681 173.501C233.007 173.3 260.238 184.448 287.22 188.066C313.067 191.53 337.94 182.339 363.682 181.289" stroke="black" stroke-width="0.75" stroke-miterlimit="10"/>
<path d="M31.4531 186.74C63.5706 189.221 99.6396 205.476 131.547 197.85C154.588 192.342 178.153 177.806 201.957 177.1C229.417 176.355 258.91 185.47 286.217 188.763C312.255 191.903 337.653 186.673 363.7 186.482" stroke="black" stroke-width="0.75" stroke-miterlimit="10"/>
<path d="M33.707 191.97C65.9581 195.425 102.934 215.879 135.013 207.308C156.718 201.514 175.807 183.38 198.675 181.891C227.309 180.03 259.436 187.665 288.137 190.194C313.306 192.418 338.475 191.063 363.701 191.664" stroke="black" stroke-width="0.75" stroke-miterlimit="10"/>
<path d="M35.7305 197.2C67.2276 201.314 107 226.788 138.182 216.461C158.502 209.78 173.745 189.603 195.793 187.417C225.543 184.477 259.894 190.424 289.912 192.094C314.527 193.468 339.086 195.616 363.711 196.866" stroke="black" stroke-width="0.75" stroke-miterlimit="10"/>
<path d="M37.3906 202.422C68.0764 206.936 110.512 236.639 140.882 225.119C160.229 217.788 171.769 196.533 193.425 193.841C224.283 190.023 260.161 193.908 291.448 194.643C315.92 195.215 339.381 200.37 363.701 202.049" stroke="black" stroke-width="0.75" stroke-miterlimit="10"/>
<path d="M38.5938 207.633C59.0382 210.773 76.4571 218.256 95.6035 225.767C110.149 231.494 127.406 239.435 142.983 233.145C161.766 225.51 170.099 204.264 191.66 201.324C223.711 196.962 260.085 198.346 292.613 198.031C317.305 197.792 339.381 205.38 363.634 207.241" stroke="black" stroke-width="0.75" stroke-miterlimit="10"/>
<path d="M39.3008 212.834C60.127 215.917 77.3836 223.944 96.6828 231.923C110.78 237.774 128.924 246.345 144.406 240.284C163.056 232.973 169.088 212.776 190.792 209.961C224.122 205.637 259.857 203.871 293.54 202.382C318.613 201.275 339.249 210.667 363.702 212.385" stroke="black" stroke-width="0.75" stroke-miterlimit="10"/>
<path d="M39.3184 218.007C60.221 221.042 77.4298 229.145 96.7481 237.239C110.759 243.1 129.133 251.671 144.643 246.001C163.293 239.186 169.039 220.231 190.619 217.606C224.435 213.435 259.454 209.818 293.519 207.556C318.869 205.866 339.056 215.993 363.7 217.606" stroke="black" stroke-width="0.75" stroke-miterlimit="10"/>
<path d="M38.6895 223.2C59.3439 226.283 76.6959 234.042 95.9569 241.792C110.131 247.519 128.198 255.747 143.747 250.249C162.234 243.701 169.164 225.643 190.257 222.78C223.558 218.294 257.871 214.485 291.43 211.737C317.486 209.599 338.37 220.575 363.711 222.78" stroke="black" stroke-width="0.75" stroke-miterlimit="10"/>
<path d="M37.4961 228.364C68.7641 232.907 110.598 264.223 142.095 253.819C160.535 247.73 169.001 231.007 189.57 227.991C222.021 223.219 255.026 218.666 287.669 215.125C314.833 212.166 337.301 224.861 363.701 227.991" stroke="black" stroke-width="0.75" stroke-miterlimit="10"/>
<path d="M35.8438 233.527C67.5508 237.803 107.943 266.37 139.88 256.854C158.301 251.366 168.618 236.371 188.633 233.183C219.968 228.182 251.303 222.512 282.724 217.969C310.995 213.875 336.173 228.984 363.7 233.183" stroke="black" stroke-width="0.75" stroke-miterlimit="10"/>
<path d="M33.8223 238.672C66.0638 242.489 104.719 267.907 137.209 259.469C155.477 254.697 168.353 242.194 187.461 238.376C217.279 232.41 247.096 226.216 276.989 220.594C306.072 215.135 335.269 233.145 363.673 238.376" stroke="black" stroke-width="0.75" stroke-miterlimit="10"/>
<path d="M31.6152 243.826C64.3818 247.09 101.291 268.995 134.267 261.798C152.526 257.818 167.568 247.348 186.209 243.558C214.642 237.832 242.732 229.948 270.974 223.314C300.448 216.385 334.76 237.479 363.7 243.558" stroke="black" stroke-width="0.75" stroke-miterlimit="10"/>
<path d="M29.2402 248.97C61.9209 251.414 95.8614 268.794 128.733 264.308C147.822 261.712 165.413 251.834 184.569 248.235C212.782 242.929 239.698 231.227 267.836 225.634C297.328 219.773 334.772 242.146 363.701 248.751" stroke="black" stroke-width="0.75" stroke-miterlimit="10"/>
<path d="M26.834 254.115C59.591 255.871 92.5961 269.806 125.506 266.351C144.69 264.347 164.047 256.949 183.069 253.313C210.071 248.14 235.564 235.512 262.337 229.356C278.563 225.643 294.206 232.84 309.64 237.946C327.593 243.883 345.289 249.533 363.7 253.943" stroke="black" stroke-width="0.75" stroke-miterlimit="10"/>
<path d="M24.4961 259.259C57.1672 260.319 89.6092 270.971 122.376 268.489C141.789 267.019 162.52 262.018 181.648 258.419C207.523 253.561 231.909 237.975 257.87 234.109C290.694 229.232 331.364 251.337 363.701 259.126" stroke="black" stroke-width="0.75" stroke-miterlimit="10"/>
<path d="M22.3672 264.405C54.8187 264.844 86.984 272.498 119.512 270.847C139.932 269.626 160.262 267.204 180.397 263.593C205.757 259.155 229.532 244.027 254.921 240.209C288.327 235.179 330.724 256.645 363.729 264.319" stroke="black" stroke-width="0.75" stroke-miterlimit="10"/>
<path d="M20.459 269.549C73.6986 269.501 126.184 276.745 179.319 268.814C204.612 264.996 228.559 251.376 253.843 247.959C287.936 243.349 329.961 262.371 363.691 269.501" stroke="black" stroke-width="0.75" stroke-miterlimit="10"/>
<path d="M18.9902 274.721C71.9244 274.196 126.195 280.782 178.995 274.721C205.386 271.686 231.118 259.373 257.605 257.159C291.392 254.295 330.401 268.956 363.702 274.721" stroke="black" stroke-width="0.75" stroke-miterlimit="10"/>
<path d="M18.0059 279.895C71.3028 279.351 125.191 283.141 178.431 279.895C206.349 278.187 234.057 270.561 262.003 269.396C295.409 267.974 330.505 276.221 363.701 279.895" stroke="black" stroke-width="0.75" stroke-miterlimit="10"/>
<path d="M17.5957 285.077C132.951 284.953 248.317 284.008 363.672 285.077" stroke="black" stroke-width="0.75" stroke-miterlimit="10"/>
</g>
<path d="M299.613 78.1318V68.349H344.226C346.618 62.3594 347.841 55.9627 347.829 49.5082C347.687 27.5667 333.291 8.30095 312.376 2.06112C291.46 -4.17855 268.948 4.07632 256.934 22.3913L299.765 41.6517V50.6714L253.957 71.2665C261.738 86.9727 277.128 97.434 294.519 98.8388C311.91 100.244 328.763 92.3872 338.936 78.1318H299.613Z" fill="#202020"/>
<path d="M252.104 31.1055C250.071 37.3579 249.033 44.0135 249.043 50.7263C249.043 55.2379 249.509 59.7319 250.43 64.1055L281.971 47.0665L252.104 31.1055Z" fill="#202020"/>
<path d="M-77.0062 274.128C-77.6282 274.133 -78.2435 274.025 -78.8058 273.812C-79.3681 273.6 -79.8628 273.288 -80.2529 272.901C-80.9347 272.205 -81.244 271.322 -81.1132 270.444C-80.9824 269.566 -80.4221 268.766 -79.5547 268.217L-47.3325 247.137C-46.584 246.648 -45.6466 246.381 -44.6793 246.381C-43.7121 246.381 -42.7747 246.648 -42.0262 247.137L-12.4921 266.488L17.042 247.137C17.7905 246.648 18.7279 246.381 19.6951 246.381C20.6623 246.381 21.5998 246.648 22.3483 247.137L51.8824 266.488L81.4164 247.137C82.1649 246.648 83.1024 246.381 84.0696 246.381C85.0368 246.381 85.9743 246.648 86.7228 247.137L116.222 266.488L145.756 247.137C146.504 246.648 147.442 246.381 148.409 246.381C149.376 246.381 150.314 246.648 151.062 247.137L183.25 268.217C184.106 268.79 184.642 269.611 184.741 270.5C184.839 271.389 184.491 272.273 183.773 272.957C183.056 273.641 182.027 274.069 180.914 274.148C179.801 274.226 178.695 273.948 177.838 273.375L148.339 254.025L118.84 273.375C118.083 273.862 117.141 274.127 116.17 274.127C115.198 274.127 114.256 273.862 113.499 273.375L83.9998 254.025L54.4657 273.375C53.7172 273.865 52.7798 274.132 51.8125 274.132C50.8453 274.132 49.9079 273.865 49.1594 273.375L19.6951 254.025L-9.83894 273.375C-10.5875 273.865 -11.5249 274.132 -12.4921 274.132C-13.4593 274.132 -14.3968 273.865 -15.1453 273.375L-44.6793 254.025L-74.2134 273.375C-75.0054 273.879 -75.9937 274.146 -77.0062 274.128Z" fill="#121212"/>
</g>
<defs>
<clipPath id="clip0_852_9301">
<rect width="375.93" height="304.58" fill="white"/>
</clipPath>
</defs>
</svg>
