
<svg version="1.1" id="Layer_1" xmlns:x="ns_extend;" xmlns:i="ns_ai;" xmlns:graph="ns_graphs;" xmlns="http://www.w3.org/2000/svg" xmlns:xlink="http://www.w3.org/1999/xlink" x="0px" y="0px" viewBox="0 0 282.7 50" style="enable-background:new 0 0 282.7 50;" xml:space="preserve">
 <style type="text/css">
  .st0{fill:#3F48FD;}
	.st1{fill-rule:evenodd;clip-rule:evenodd;fill:#3F48FD;}
 </style>
 <metadata>
  <sfw xmlns="ns_sfw;">
   <slices>
   </slices>
   <sliceSourceBounds bottomLeftOrigin="true" height="50" width="282.7" x="58.9" y="-225.2">
   </sliceSourceBounds>
  </sfw>
 </metadata>
 <g>
  <path class="st0" d="M201.7,17.8c0-10.2,7.9-17.8,18.3-17.8c10.4,0,18.3,7.6,18.3,17.8v17.8h-8.9V17.8c0-5.7-4-9.6-9.4-9.6
		c-5.3,0-9.4,3.9-9.4,9.6v17.8h-8.9V17.8z">
  </path>
  <path class="st0" d="M69.3,24.5c-1.6,2.1-4.1,2.9-7,2.9c-4.4,0-8-2.6-8.9-6.6h26c0.1-1.1,0.1-2,0.1-3.1c0-9.9-7.2-17.6-17.5-17.6
		C51.5,0.1,44,7.8,44,17.9c0,10.2,7.7,17.8,18.3,17.8c7.2,0,14.1-4.3,16.6-11.2H69.3z M53.6,14.2c0.6-3.8,4.3-6.4,8.4-6.4
		c4.1,0,7.5,2.5,8,6.4H53.6z">
  </path>
  <path class="st0" d="M151.6,11c-1.8-6.5-7.5-10.9-17.5-10.9c-9.6,0-15.3,4.6-15.3,11.2c0,6.1,4,9.2,11.7,10l6.7,0.6
		c3.4,0.4,5.3,1.3,5.3,3.2c0,2.1-2.7,3.2-6.1,3.2c-4.7,0-8-1.3-9-4.2h-9.5c1.6,7.4,7.9,11.6,17.8,11.6c9.9,0,15.8-4.7,15.8-11.2
		c0-6.5-4.5-9.6-12.1-10.2l-6.1-0.5c-3.5-0.3-5.4-1.1-5.4-3c0-2.1,2.3-3.3,6.2-3.3c4,0,6.9,1.1,8.2,3.5H151.6z">
  </path>
  <path class="st0" d="M96.6,34.8h-8.9V17.6c0-8.4,5.2-16.9,17.8-16.9h6.3v8.5h-6.4c-5.8,0-8.8,3.7-8.8,9.1V34.8z">
  </path>
  <path class="st1" d="M18.3,0.1C7.9,0.1,0,7.7,0,17.9V50h8.9V35.7h9.4c10.4,0,18.3-7.6,18.3-17.8C36.6,7.7,28.8,0.1,18.3,0.1z
		 M27.7,17.9c0-5.7-4-9.6-9.4-9.6c-5.3,0-9.4,3.9-9.4,9.6v9.5h9.4C23.7,27.5,27.7,23.6,27.7,17.9z">
  </path>
  <path class="st1" d="M264.3,0.1c10.4,0,18.3,7.6,18.3,17.8v17.8h-8.9h-9.4c-10.4,0-18.3-7.6-18.3-17.8C246,7.7,253.9,0.1,264.3,0.1
		z M255,17.9c0-5.7,4-9.6,9.4-9.6c5.3,0,9.4,3.9,9.4,9.6v9.5h-9.4C259,27.5,255,23.6,255,17.9z">
  </path>
  <path class="st0" d="M175.8,0.1c-10.4,0-18.3,7.6-18.3,17.8c0,10.2,7.9,17.8,18.3,17.8c10.4,0,18.3-7.6,18.3-17.8
		C194.2,7.7,186.3,0.1,175.8,0.1z M175.8,8.4c5.3,0,9.4,3.9,9.4,9.6c0,5.6-4,9.5-9.4,9.5c-5.3,0-9.4-3.9-9.4-9.5
		C166.5,12.3,170.5,8.4,175.8,8.4z">
  </path>
 </g>
</svg>