<svg width="80" height="80" viewBox="0 0 80 80" fill="none" xmlns="http://www.w3.org/2000/svg">
<g clip-path="url(#clip0_125_91869)">
<path d="M78.1306 29.1775V56.4856L56.4857 78.1122V50.8041L78.1306 29.1775Z" fill="white"/>
<path d="M50.8225 1.86938V29.1775L29.1776 50.8041V23.5143L50.8225 1.86938Z" fill="white"/>
<path d="M56.4857 80H1.83276C1.34668 80 0.880512 79.8069 0.536803 79.4632C0.193094 79.1194 0 78.6533 0 78.1672V23.5143C0 23.0282 0.193094 22.562 0.536803 22.2183C0.880512 21.8746 1.34668 21.6815 1.83276 21.6815H29.1409C29.627 21.6815 30.0931 21.8746 30.4368 22.2183C30.7806 22.562 30.9737 23.0282 30.9737 23.5143V48.9347H56.4857C56.9718 48.9347 57.4379 49.1278 57.7816 49.4715C58.1253 49.8152 58.3184 50.2814 58.3184 50.7674V78.1122C58.3258 78.3575 58.2838 78.6017 58.195 78.8305C58.1062 79.0592 57.9724 79.2678 57.8015 79.4439C57.6305 79.6199 57.426 79.7599 57.2 79.8554C56.974 79.9509 56.7311 80.0001 56.4857 80ZM3.75716 76.3344H54.6163V52.6918H29.1775C28.6915 52.6918 28.2253 52.4987 27.8816 52.155C27.5379 51.8113 27.3448 51.3451 27.3448 50.8591V25.3837H3.75716V76.3344Z" fill="white"/>
<path d="M1.83276 25.3837C1.58719 25.3852 1.34384 25.3372 1.11715 25.2428C0.890465 25.1483 0.685074 25.0093 0.513175 24.8339C0.332947 24.6627 0.189433 24.4566 0.0913658 24.2282C-0.00670186 23.9997 -0.0572739 23.7537 -0.0572739 23.5052C-0.0572739 23.2566 -0.00670186 23.0106 0.0913658 22.7821C0.189433 22.5537 0.332947 22.3476 0.513175 22.1764L22.1764 0.549828C22.535 0.201167 23.0142 0.00422619 23.5143 0L50.8224 0C51.3207 0 51.7985 0.197921 52.1508 0.550223C52.5031 0.902525 52.701 1.38035 52.701 1.87858C52.701 2.37681 52.5031 2.85463 52.1508 3.20694C51.7985 3.55924 51.3207 3.75716 50.8224 3.75716H24.2841L3.20733 24.8339C3.02905 25.0161 2.81472 25.1591 2.57803 25.2538C2.34135 25.3485 2.08752 25.3927 1.83276 25.3837Z" fill="white"/>
<path d="M50.8225 31.5785C50.3364 31.5785 49.8702 31.3854 49.5265 31.0417C49.1828 30.698 48.9897 30.2318 48.9897 29.7457V6.41469L30.6621 24.8339C30.3097 25.2058 29.824 25.4224 29.3119 25.4362C28.7997 25.4499 28.3031 25.2597 27.9313 24.9072C27.5594 24.5548 27.3428 24.0691 27.3291 23.557C27.3153 23.0449 27.5056 22.5483 27.858 22.1764L49.4845 0.549858C49.7346 0.265594 50.0666 0.0657666 50.4349 -0.0221603C50.8032 -0.110087 51.1897 -0.0817978 51.5412 0.0588201C51.8927 0.199438 52.1921 0.445482 52.3982 0.763135C52.6042 1.08079 52.7068 1.45446 52.6919 1.83279V29.6908C52.6994 29.9391 52.6563 30.1865 52.5652 30.4177C52.4742 30.6489 52.3371 30.8592 52.1622 31.0357C51.9874 31.2123 51.7784 31.3515 51.5481 31.4448C51.3178 31.5381 51.0709 31.5836 50.8225 31.5785Z" fill="white"/>
<path d="M29.1775 52.6918C28.932 52.6933 28.6886 52.6453 28.4619 52.5509C28.2352 52.4564 28.0299 52.3174 27.858 52.142C27.6777 51.9708 27.5342 51.7647 27.4361 51.5363C27.3381 51.3078 27.2875 51.0618 27.2875 50.8132C27.2875 50.5647 27.3381 50.3187 27.4361 50.0902C27.5342 49.8618 27.6777 49.6557 27.858 49.4845L49.4845 27.8579C49.6586 27.6803 49.8669 27.54 50.0969 27.4454C50.327 27.3509 50.5738 27.3042 50.8224 27.3081H78.1122C78.5983 27.3081 79.0645 27.5012 79.4082 27.8449C79.7519 28.1886 79.945 28.6548 79.945 29.1408C79.945 29.6269 79.7519 30.0931 79.4082 30.4368C79.0645 30.7805 78.5983 30.9736 78.1122 30.9736H51.5922L30.5155 52.0504C30.3495 52.2446 30.1447 52.4021 29.9143 52.5125C29.6839 52.623 29.4329 52.6841 29.1775 52.6918Z" fill="white"/>
<path d="M56.4857 80C56.2401 80.0015 55.9968 79.9535 55.7701 79.8591C55.5434 79.7646 55.338 79.6256 55.1661 79.4502C54.9859 79.279 54.8423 79.0729 54.7443 78.8444C54.6462 78.616 54.5956 78.37 54.5956 78.1214C54.5956 77.8728 54.6462 77.6269 54.7443 77.3984C54.8423 77.17 54.9859 76.9639 55.1661 76.7927L76.2428 55.7159V33.7228L57.8053 52.1421C57.6343 52.3194 57.4293 52.4605 57.2026 52.5569C56.9759 52.6533 56.732 52.7029 56.4857 52.7029C56.2393 52.7029 55.9955 52.6533 55.7688 52.5569C55.542 52.4605 55.3371 52.3194 55.1661 52.1421C54.9859 51.9708 54.8423 51.7648 54.7443 51.5363C54.6462 51.3079 54.5956 51.0619 54.5956 50.8133C54.5956 50.5647 54.6462 50.3187 54.7443 50.0903C54.8423 49.8619 54.9859 49.6558 55.1661 49.4846L76.7927 27.858C77.0447 27.5706 77.3802 27.3692 77.7523 27.282C78.1244 27.1948 78.5145 27.2261 78.8679 27.3715C79.2214 27.5169 79.5205 27.7692 79.7235 28.093C79.9265 28.4169 80.0232 28.7961 80 29.1776V56.4857C80.0014 56.7313 79.9535 56.9746 79.859 57.2013C79.7646 57.428 79.6255 57.6334 79.4502 57.8053L57.8053 79.4502C57.6334 79.6256 57.428 79.7646 57.2013 79.8591C56.9746 79.9535 56.7312 80.0015 56.4857 80Z" fill="white"/>
</g>
<defs>
<clipPath id="clip0_125_91869">
<rect width="80" height="80" fill="white"/>
</clipPath>
</defs>
</svg>
