<svg width="30" height="30" viewBox="0 0 30 30" fill="none" xmlns="http://www.w3.org/2000/svg">
<g clip-path="url(#clip0_186_253)">
<path d="M15.0122 30.0001C12.8691 30.0052 10.7499 29.549 8.79859 28.6624C8.68401 28.6088 8.5811 28.5332 8.49573 28.4399C8.41036 28.3466 8.3442 28.2373 8.30104 28.1184C8.21388 27.8782 8.22566 27.6133 8.33379 27.3818C8.38733 27.2672 8.46292 27.1643 8.55623 27.0789C8.64955 26.9935 8.75877 26.9273 8.87765 26.8841C9.11774 26.7969 9.38262 26.8087 9.61403 26.9169C11.3122 27.697 13.1599 28.0978 15.0285 28.0914C15.1545 28.0904 15.2795 28.1142 15.3962 28.1617C15.5128 28.2092 15.619 28.2793 15.7084 28.3681C15.7979 28.4568 15.8689 28.5623 15.9174 28.6787C15.9658 28.795 15.9908 28.9197 15.9908 29.0458C15.9919 29.1735 15.9672 29.3001 15.9182 29.4181C15.8691 29.536 15.7967 29.6428 15.7052 29.7319C15.6138 29.8211 15.5053 29.8908 15.3862 29.9369C15.2671 29.983 15.1399 30.0045 15.0122 30.0001ZM19.9049 29.1192C19.6796 29.1214 19.4609 29.0438 19.2873 28.9002C19.1138 28.7566 18.9966 28.5562 18.9566 28.3345C18.9166 28.1128 18.9562 27.8841 19.0686 27.6888C19.181 27.4935 19.3588 27.3443 19.5705 27.2676C21.322 26.6036 22.914 25.5781 24.243 24.2578C24.4218 24.08 24.6636 23.9802 24.9157 23.9802C25.1678 23.9802 25.4097 24.08 25.5885 24.2578C25.7667 24.438 25.8667 24.6813 25.8667 24.9348C25.8667 25.1883 25.7667 25.4316 25.5885 25.6118C24.0686 27.1303 22.2421 28.3067 20.231 29.0621C20.1314 29.0972 20.0268 29.1164 19.9212 29.1192H19.9049ZM5.08019 25.9055C4.83006 25.9019 4.59078 25.8027 4.41153 25.6281C2.88931 24.1096 1.71032 22.2822 0.954067 20.2692C0.908556 20.152 0.886586 20.0269 0.889412 19.9011C0.892238 19.7753 0.919804 19.6513 0.970537 19.5362C1.02127 19.421 1.09418 19.317 1.18509 19.2301C1.27601 19.1431 1.38315 19.075 1.50041 19.0294C1.61767 18.9839 1.74274 18.9619 1.86849 18.9648C1.99424 18.9676 2.1182 18.9952 2.2333 19.0459C2.34839 19.0967 2.45237 19.1696 2.53929 19.2605C2.62621 19.3515 2.69437 19.4586 2.73988 19.5759C3.40349 21.3299 4.43187 22.923 5.757 24.2497C5.84601 24.3377 5.91667 24.4425 5.96489 24.558C6.01312 24.6735 6.03795 24.7974 6.03795 24.9226C6.03795 25.0478 6.01312 25.1717 5.96489 25.2872C5.91667 25.4027 5.84601 25.5075 5.757 25.5955C5.67163 25.691 5.56743 25.7679 5.45096 25.8212C5.3345 25.8745 5.20826 25.9032 5.08019 25.9055ZM27.7739 21.7864C27.6142 21.7876 27.4569 21.7483 27.3165 21.6723C27.1762 21.5963 27.0573 21.486 26.971 21.3516C26.8847 21.2173 26.8339 21.0633 26.8231 20.904C26.8123 20.7447 26.8421 20.5853 26.9095 20.4405C27.6897 18.7333 28.0903 16.8772 28.0837 15.0001C28.0836 14.7439 28.183 14.4977 28.3611 14.3135C28.5391 14.1293 28.7818 14.0216 29.0378 14.0131C29.1623 14.0099 29.2862 14.0315 29.4023 14.0766C29.5184 14.1218 29.6243 14.1896 29.7138 14.2762C29.8034 14.3628 29.8749 14.4663 29.924 14.5808C29.9731 14.6953 29.999 14.8184 30 14.943V15.0001C30.0001 17.1424 29.5384 19.2596 28.6464 21.2073C28.5732 21.3784 28.4517 21.5244 28.2966 21.6273C28.1416 21.7301 27.9599 21.7855 27.7739 21.7864ZM0.954067 15.9707C0.829554 15.9729 0.705856 15.9502 0.590194 15.9041C0.474531 15.8579 0.36922 15.7891 0.280406 15.7018C0.191593 15.6145 0.121057 15.5104 0.0729134 15.3955C0.0247702 15.2806 -1.51652e-05 15.1573 3.66909e-06 15.0327V14.9593C-0.00149253 12.8343 0.454625 10.7339 1.33732 8.80106C1.44546 8.57067 1.64066 8.39269 1.87999 8.30626C2.11931 8.21984 2.38316 8.23205 2.61349 8.34021C2.84381 8.44837 3.02175 8.64363 3.10815 8.88302C3.19455 9.12241 3.18234 9.38633 3.07421 9.61672C2.30531 11.3158 1.90777 13.1595 1.90813 15.0245C1.90389 15.2756 1.80175 15.515 1.62351 15.6918C1.44528 15.8685 1.20505 15.9686 0.954067 15.9707ZM28.1408 10.9952C27.9459 10.9959 27.7554 10.9368 27.5951 10.826C27.4347 10.7152 27.3121 10.5579 27.2438 10.3753C26.5802 8.62178 25.5486 7.03088 24.2185 5.7097C24.1297 5.62134 24.059 5.51632 24.0107 5.40066C23.9624 5.28499 23.9374 5.16094 23.937 5.03559C23.9366 4.91024 23.9609 4.78604 24.0085 4.67009C24.0561 4.55413 24.1261 4.44869 24.2145 4.35979C24.3028 4.27088 24.4078 4.20025 24.5234 4.15193C24.6391 4.10361 24.7631 4.07855 24.8884 4.07817C25.0137 4.07779 25.1379 4.10211 25.2538 4.14973C25.3697 4.19735 25.4751 4.26734 25.564 4.35571C27.0874 5.87331 28.2714 7.69708 29.0378 9.70644C29.1248 9.94335 29.1145 10.2051 29.009 10.4344C28.9036 10.6637 28.7116 10.8419 28.4751 10.9299C28.3695 10.975 28.2556 10.9972 28.1408 10.9952ZM5.04757 6.05228C4.922 6.05331 4.79748 6.02931 4.68128 5.9817C4.56508 5.93409 4.45952 5.86381 4.37076 5.77496C4.19248 5.59476 4.09249 5.35148 4.09249 5.09796C4.09249 4.84444 4.19248 4.60116 4.37076 4.42096C5.88762 2.89871 7.71115 1.71699 9.72004 0.954403C9.95193 0.888914 10.1999 0.912836 10.4151 1.02144C10.6302 1.13004 10.7967 1.31542 10.8818 1.54093C10.9668 1.76644 10.9642 2.01566 10.8744 2.23932C10.7846 2.46299 10.6142 2.64481 10.3969 2.74886C8.63604 3.40766 7.03711 4.43682 5.70808 5.7668C5.5331 5.94382 5.29636 6.04614 5.04757 6.05228ZM20.7855 3.15669C20.6508 3.15721 20.5175 3.12942 20.3941 3.07512C18.6999 2.30133 16.8584 1.90343 14.9959 1.90873C14.7406 1.90881 14.4953 1.80905 14.3125 1.63075C14.1297 1.45245 14.0238 1.20973 14.0174 0.954403C14.0152 0.829856 14.0379 0.706125 14.084 0.59043C14.1302 0.474736 14.1989 0.369396 14.2862 0.280559C14.3735 0.191721 14.4776 0.121166 14.5925 0.0730095C14.7073 0.0248532 14.8306 6.10696e-05 14.9552 7.9909e-05H14.9959C17.1358 -0.00692356 19.2521 0.446504 21.2014 1.32961C21.3155 1.38154 21.4182 1.45544 21.5037 1.54708C21.5892 1.63873 21.6558 1.74633 21.6997 1.86374C21.7437 1.98114 21.764 2.10605 21.7597 2.23133C21.7553 2.35661 21.7263 2.47981 21.6744 2.59388C21.5995 2.76583 21.4747 2.91136 21.3163 3.01169C21.1578 3.11201 20.973 3.16252 20.7855 3.15669Z" fill="black"/>
<path d="M14.9959 22.4062C19.0851 22.4062 22.4001 19.0903 22.4001 15C22.4001 10.9097 19.0851 7.59381 14.9959 7.59381C10.9067 7.59381 7.59174 10.9097 7.59174 15C7.59174 19.0903 10.9067 22.4062 14.9959 22.4062Z" fill="black"/>
</g>
<defs>
<clipPath id="clip0_186_253">
<rect width="30" height="30" fill="white"/>
</clipPath>
</defs>
</svg>
