<svg width="30" height="30" viewBox="0 0 30 30" fill="none" xmlns="http://www.w3.org/2000/svg">
<g clip-path="url(#clip0_186_256)">
<path d="M17.6677 30H7.67923C7.4964 30 7.32107 29.9274 7.19179 29.7981C7.06252 29.6688 6.98989 29.4935 6.98989 29.3107V23.0239H0.689338C0.506514 23.0239 0.331178 22.9513 0.201902 22.822C0.0726265 22.6927 0 22.5174 0 22.3345V12.3322C0 12.1494 0.0726265 11.9741 0.201902 11.8448C0.331178 11.7155 0.506514 11.6429 0.689338 11.6429H6.96232V5.35615C6.96232 5.17332 7.03494 4.99799 7.16422 4.86871C7.29349 4.73944 7.46883 4.66681 7.65165 4.66681H17.6677C17.8506 4.66681 18.0259 4.73944 18.1552 4.86871C18.2845 4.99799 18.3571 5.17332 18.3571 5.35615V11.6291H24.6232C24.806 11.6291 24.9813 11.7018 25.1106 11.831C25.2399 11.9603 25.3125 12.1356 25.3125 12.3185V22.3208C25.3125 22.5036 25.2399 22.6789 25.1106 22.8082C24.9813 22.9375 24.806 23.0101 24.6232 23.0101H18.3778V29.2831C18.3816 29.3777 18.3659 29.472 18.3317 29.5603C18.2974 29.6485 18.2454 29.7288 18.1788 29.7961C18.1122 29.8633 18.0324 29.9161 17.9445 29.9512C17.8566 29.9863 17.7624 30.0029 17.6677 30ZM8.38925 28.6213H16.9646V22.3483C16.9646 22.1655 17.0372 21.9902 17.1665 21.8609C17.2958 21.7316 17.4711 21.659 17.654 21.659H23.9269V13.0354H17.654C17.4711 13.0354 17.2958 12.9627 17.1665 12.8335C17.0372 12.7042 16.9646 12.5289 16.9646 12.346V6.05927H8.38925V12.3322C8.38925 12.5151 8.31662 12.6904 8.18734 12.8197C8.05807 12.949 7.88273 13.0216 7.69991 13.0216H1.41314V21.6176H7.67923C7.86205 21.6176 8.03739 21.6903 8.16666 21.8195C8.29594 21.9488 8.36857 22.1242 8.36857 22.307L8.38925 28.6213Z" fill="black"/>
<path d="M0.68935 13.0354C0.548597 13.0393 0.410021 13 0.292259 12.9228C0.174498 12.8456 0.0832005 12.7342 0.0306472 12.6036C-0.0219062 12.4729 -0.0331947 12.3294 -0.00170014 12.1921C0.0297945 12.0549 0.102562 11.9306 0.206814 11.8359L4.85985 7.18289C4.9245 7.11692 5.00175 7.06463 5.08701 7.0291C5.17228 6.99357 5.26381 6.97555 5.35617 6.97609H7.66545C7.85285 6.97609 8.03257 7.05053 8.16508 7.18304C8.29758 7.31554 8.37203 7.49526 8.37203 7.68266C8.37203 7.87005 8.29758 8.04977 8.16508 8.18228C8.03257 8.31479 7.85285 8.38923 7.66545 8.38923H5.64569L1.20635 12.8286C1.1393 12.8971 1.05868 12.9509 0.969662 12.9865C0.880641 13.0221 0.78517 13.0387 0.68935 13.0354Z" fill="black"/>
<path d="M7.66541 6.05929C7.52348 6.06622 7.38287 6.0291 7.26284 5.95303C7.14281 5.87696 7.04922 5.76565 6.99488 5.63434C6.94055 5.50304 6.92812 5.35814 6.95931 5.2195C6.99049 5.08086 7.06376 4.95524 7.16909 4.85985L11.8221 0.206813C11.8868 0.140849 11.964 0.0885514 12.0493 0.053026C12.1346 0.0175006 12.2261 -0.0005277 12.3184 1.17581e-05H22.2794C22.4668 1.17581e-05 22.6465 0.0744539 22.779 0.206962C22.9115 0.33947 22.986 0.519189 22.986 0.706583C22.986 0.893978 22.9115 1.0737 22.779 1.20621C22.6465 1.33871 22.4668 1.41316 22.2794 1.41316H12.6287L8.16863 5.85249C8.10317 5.9193 8.0248 5.97209 7.93829 6.00764C7.85178 6.04319 7.75894 6.06077 7.66541 6.05929Z" fill="black"/>
<path d="M22.2794 8.38924C22.0966 8.38924 21.9212 8.31661 21.792 8.18734C21.6627 8.05806 21.59 7.88272 21.59 7.6999V2.41268L18.1434 5.85937C18.079 5.92716 18.0014 5.98113 17.9155 6.01802C17.8296 6.0549 17.7371 6.07393 17.6436 6.07393C17.5501 6.07393 17.4576 6.0549 17.3716 6.01802C17.2857 5.98113 17.2082 5.92716 17.1438 5.85937C17.0771 5.79506 17.024 5.71797 16.9878 5.63269C16.9515 5.54741 16.9329 5.45571 16.9329 5.36304C16.9329 5.27038 16.9515 5.17867 16.9878 5.0934C17.024 5.00812 17.0771 4.93103 17.1438 4.86672L21.7762 0.206795C21.874 0.105776 22.0004 0.0371046 22.1384 0.00999664C22.2764 -0.0171113 22.4194 -0.00135866 22.5482 0.0551405C22.6776 0.106651 22.7883 0.196129 22.8658 0.311793C22.9434 0.427458 22.984 0.563887 22.9825 0.703118V7.67922C22.9853 7.77264 22.9691 7.86566 22.9349 7.95263C22.9006 8.03959 22.8491 8.11869 22.7833 8.1851C22.7175 8.25151 22.6389 8.30385 22.5523 8.33895C22.4657 8.37404 22.3728 8.39115 22.2794 8.38924Z" fill="black"/>
<path d="M17.6264 13.0354C17.4844 13.0423 17.3438 13.0052 17.2238 12.9291C17.1037 12.853 17.0102 12.7417 16.9558 12.6104C16.9015 12.4791 16.8891 12.3342 16.9202 12.1956C16.9514 12.0569 17.0247 11.9313 17.13 11.8359L21.7762 7.18288C21.911 7.05174 22.0913 6.97766 22.2794 6.97607H29.2968C29.4842 6.97607 29.664 7.05052 29.7965 7.18302C29.929 7.31553 30.0034 7.49525 30.0034 7.68265C30.0034 7.87004 29.929 8.04976 29.7965 8.18227C29.664 8.31478 29.4842 8.38922 29.2968 8.38922H22.5689L18.1296 12.8286C18.0641 12.8954 17.9857 12.9481 17.8992 12.9837C17.8127 13.0193 17.7199 13.0368 17.6264 13.0354Z" fill="black"/>
<path d="M24.6438 23.0101C24.5001 23.0218 24.3563 22.9881 24.2327 22.9138C24.1092 22.8395 24.012 22.7283 23.9549 22.5959C23.8978 22.4635 23.8837 22.3165 23.9146 22.1756C23.9454 22.0348 24.0196 21.9071 24.1268 21.8106L28.573 17.3644V9.38877L25.1264 12.8355C25.062 12.9032 24.9844 12.9572 24.8985 12.9941C24.8126 13.031 24.7201 13.05 24.6266 13.05C24.5331 13.05 24.4406 13.031 24.3546 12.9941C24.2687 12.9572 24.1912 12.9032 24.1268 12.8355C24.0601 12.7712 24.007 12.6941 23.9708 12.6088C23.9345 12.5235 23.9159 12.4318 23.9159 12.3391C23.9159 12.2465 23.9345 12.1548 23.9708 12.0695C24.007 11.9842 24.0601 11.9071 24.1268 11.8428L28.7798 7.18978C28.8752 7.08445 29.0009 7.01118 29.1395 6.98C29.2781 6.94881 29.423 6.96124 29.5543 7.01557C29.6857 7.06991 29.797 7.1635 29.873 7.28353C29.9491 7.40356 29.9862 7.54417 29.9793 7.68611V17.6539C29.9808 17.7475 29.9632 17.8403 29.9276 17.9268C29.8921 18.0133 29.8393 18.0917 29.7725 18.1572L25.1264 22.8033C24.9991 22.9332 24.8256 23.0075 24.6438 23.0101Z" fill="black"/>
<path d="M17.6264 30C17.4844 30.0069 17.3438 29.9698 17.2238 29.8937C17.1037 29.8177 17.0102 29.7064 16.9558 29.575C16.9015 29.4437 16.8891 29.2988 16.9202 29.1602C16.9514 29.0216 17.0247 28.8959 17.13 28.8005L21.5694 24.3543V22.3208C21.5694 22.1334 21.6438 21.9537 21.7763 21.8211C21.9088 21.6886 22.0885 21.6142 22.2759 21.6142C22.4633 21.6142 22.6431 21.6886 22.7756 21.8211C22.9081 21.9537 22.9825 22.1334 22.9825 22.3208V24.6438C22.984 24.7374 22.9664 24.8302 22.9309 24.9167C22.8953 25.0032 22.8425 25.0816 22.7757 25.1471L18.1296 29.7932C18.0641 29.86 17.9857 29.9128 17.8992 29.9483C17.8127 29.9839 17.7199 30.0015 17.6264 30Z" fill="black"/>
<path d="M18 5L22 2L22.5 8H28L24.5 12H18V5Z" fill="black"/>
<path d="M25 8H29.5L29 17.5L25 21V8Z" fill="black"/>
<path d="M18 23H22L21.5 24.5L18 28V23Z" fill="black"/>
</g>
<defs>
<clipPath id="clip0_186_256">
<rect width="30" height="30" fill="white"/>
</clipPath>
</defs>
</svg>
