<svg width="358" height="358" viewBox="0 0 358 358" fill="none" xmlns="http://www.w3.org/2000/svg">
<g clip-path="url(#clip0_852_9013)">
<path d="M352.03 66.0127L212.238 205.863H152.137L291.987 66.0127H352.03Z" fill="black"/>
<path d="M291.988 5.91113L152.138 145.819H152.08H66.0137L205.922 5.91113H291.988Z" fill="black"/>
<path d="M66.0121 145.819V205.863H5.96875L66.0121 145.819Z" fill="black"/>
<path d="M152.079 358H66.0129C64.4758 358 63.0017 357.39 61.9148 356.303C60.8279 355.216 60.2173 353.742 60.2173 352.205V297.899H5.79569C4.25858 297.899 2.78442 297.288 1.69752 296.202C0.610616 295.115 0 293.641 0 292.103V205.921C0 204.384 0.610616 202.91 1.69752 201.823C2.78442 200.736 4.25858 200.126 5.79569 200.126H59.9854V145.82C59.9854 144.283 60.596 142.809 61.6829 141.722C62.7698 140.635 64.244 140.024 65.7811 140.024H152.079C153.616 140.024 155.09 140.635 156.177 141.722C157.264 142.809 157.875 144.283 157.875 145.82V199.952H212.006C213.544 199.952 215.018 200.562 216.105 201.649C217.192 202.736 217.802 204.21 217.802 205.748V291.988C217.802 293.525 217.192 294.999 216.105 296.086C215.018 297.173 213.544 297.783 212.006 297.783H158.049V351.973C158.081 352.768 157.949 353.562 157.661 354.304C157.373 355.046 156.936 355.72 156.376 356.286C155.815 356.851 155.145 357.295 154.406 357.59C153.667 357.885 152.875 358.025 152.079 358ZM71.9825 346.119H146.167V291.988C146.167 290.45 146.778 288.976 147.865 287.889C148.952 286.802 150.426 286.192 151.963 286.192H206.153V211.833H152.079C150.542 211.833 149.068 211.222 147.981 210.136C146.894 209.049 146.283 207.574 146.283 206.037V151.732H71.9825V205.921C71.9825 207.459 71.3719 208.933 70.285 210.02C69.1981 211.107 67.7239 211.717 66.1868 211.717H11.8812V285.902H66.0129C67.5501 285.902 69.0242 286.513 70.1111 287.6C71.198 288.686 71.8086 290.161 71.8086 291.698L71.9825 346.119Z" fill="black"/>
<path d="M66.012 151.731C65.2354 151.736 64.4659 151.584 63.749 151.286C63.0322 150.987 62.3827 150.547 61.8391 149.993C61.2691 149.451 60.8153 148.799 60.5052 148.077C60.1951 147.355 60.0352 146.577 60.0352 145.791C60.0352 145.005 60.1951 144.227 60.5052 143.504C60.8153 142.782 61.2691 142.13 61.8391 141.589L201.689 1.73871C202.823 0.636147 204.339 0.0133644 205.92 0L291.986 0C293.562 0 295.073 0.625881 296.187 1.73996C297.301 2.85403 297.927 4.36504 297.927 5.94059C297.927 7.51613 297.301 9.02714 296.187 10.1412C295.073 11.2553 293.562 11.8812 291.986 11.8812H208.644L70.2428 149.993C69.6925 150.554 69.0335 150.998 68.3062 151.297C67.5788 151.596 66.7983 151.744 66.012 151.731Z" fill="black"/>
<path d="M5.79517 211.833C5.01861 211.837 4.24905 211.686 3.53221 211.387C2.81537 211.089 2.16587 210.649 1.62228 210.094C1.05234 209.553 0.598516 208.901 0.288399 208.179C-0.021718 207.456 -0.181641 206.678 -0.181641 205.892C-0.181641 205.106 -0.021718 204.328 0.288399 203.606C0.598516 202.884 1.05234 202.232 1.62228 201.69L61.8395 141.589C62.9539 140.475 64.4654 139.849 66.0414 139.849C67.6174 139.849 69.1289 140.475 70.2433 141.589C71.3577 142.704 71.9838 144.215 71.9838 145.791C71.9838 147.367 71.3577 148.878 70.2433 149.993L10.1419 210.094C9.57817 210.67 8.90039 211.123 8.15193 211.422C7.40347 211.721 6.60079 211.861 5.79517 211.833Z" fill="black"/>
<path d="M152.136 151.731C151.35 151.744 150.569 151.596 149.842 151.297C149.115 150.998 148.456 150.554 147.905 149.993C147.336 149.451 146.882 148.799 146.572 148.077C146.261 147.355 146.102 146.577 146.102 145.791C146.102 145.005 146.261 144.227 146.572 143.504C146.882 142.782 147.336 142.13 147.905 141.589L287.814 1.73881C288.604 0.83989 289.654 0.20798 290.819 -0.0700689C291.983 -0.348118 293.206 -0.258659 294.317 0.186013C295.429 0.630686 296.376 1.40874 297.027 2.41325C297.679 3.41776 298.003 4.59941 297.956 5.79579V66.0131C297.956 67.5502 297.345 69.0243 296.258 70.1112C295.172 71.1981 293.697 71.8087 292.16 71.8087C290.623 71.8087 289.149 71.1981 288.062 70.1112C286.975 69.0243 286.365 67.5502 286.365 66.0131V20.285L156.483 149.993C155.919 150.569 155.242 151.021 154.493 151.32C153.745 151.62 152.942 151.76 152.136 151.731Z" fill="black"/>
<path d="M152.136 211.833C151.35 211.845 150.569 211.698 149.842 211.399C149.115 211.1 148.456 210.656 147.905 210.094C147.336 209.553 146.882 208.901 146.572 208.179C146.261 207.456 146.102 206.678 146.102 205.892C146.102 205.106 146.261 204.328 146.572 203.606C146.882 202.884 147.336 202.232 147.905 201.69L287.814 61.8404C288.357 61.2858 289.007 60.8461 289.723 60.5474C290.44 60.2487 291.21 60.0971 291.986 60.1017H352.088C353.625 60.1017 355.099 60.7123 356.186 61.7992C357.273 62.8861 357.883 64.3602 357.883 65.8974C357.883 67.4345 357.273 68.9086 356.186 69.9955C355.099 71.0824 353.625 71.693 352.088 71.693H294.479L156.483 210.094C155.919 210.67 155.242 211.123 154.493 211.422C153.745 211.721 152.942 211.861 152.136 211.833Z" fill="black"/>
<path d="M212.18 297.957C211.403 297.961 210.634 297.81 209.917 297.511C209.2 297.212 208.551 296.773 208.007 296.218C207.437 295.677 206.983 295.025 206.673 294.303C206.363 293.58 206.203 292.802 206.203 292.016C206.203 291.23 206.363 290.452 206.673 289.73C206.983 289.008 207.437 288.356 208.007 287.814L346.118 149.703V80.1547L216.411 210.094C215.296 211.209 213.785 211.835 212.209 211.835C210.633 211.835 209.121 211.209 208.007 210.094C206.893 208.98 206.267 207.468 206.267 205.892C206.267 204.316 206.893 202.805 208.007 201.69L347.741 61.8403C348.557 60.9813 349.617 60.3929 350.777 60.1546C351.938 59.9163 353.144 60.0394 354.232 60.5073C355.378 60.96 356.349 61.7659 357.006 62.808C357.662 63.8502 357.97 65.0743 357.884 66.303V152.137C357.888 152.914 357.737 153.683 357.438 154.4C357.139 155.117 356.7 155.767 356.145 156.31L216.411 296.218C215.86 296.78 215.201 297.224 214.474 297.523C213.747 297.821 212.966 297.969 212.18 297.957Z" fill="black"/>
<path d="M152.022 358C151.245 358.004 150.476 357.853 149.759 357.554C149.042 357.256 148.392 356.816 147.849 356.261C147.279 355.72 146.825 355.068 146.515 354.346C146.205 353.623 146.045 352.845 146.045 352.059C146.045 351.273 146.205 350.495 146.515 349.773C146.825 349.051 147.279 348.399 147.849 347.857L207.95 287.756C209.065 286.642 210.576 286.016 212.152 286.016C213.728 286.016 215.24 286.642 216.354 287.756C217.468 288.871 218.094 290.382 218.094 291.958C218.094 293.534 217.468 295.045 216.354 296.16L156.484 356.261C155.907 356.852 155.211 357.313 154.441 357.613C153.671 357.913 152.847 358.045 152.022 358Z" fill="black"/>
</g>
<defs>
<clipPath id="clip0_852_9013">
<rect width="358" height="358" fill="white"/>
</clipPath>
</defs>
</svg>
